<svg xmlns="http://www.w3.org/2000/svg" viewBox="0 0 326.87 159.23"><defs><style>.cls-1{fill:#727272;}.cls-2{fill:#fff;}.cls-3{fill:none;stroke:#d11907;stroke-miterlimit:10;stroke-width:3px;}</style></defs><title>Asset 15heart</title><g id="Layer_2" data-name="Layer 2"><g id="Layer_1-2" data-name="Layer 1"><path class="cls-1" d="M76.12,120.19q3.69,12.1-9.28,16.08l-16.57,5.07-12.84-42,16.22-5q6.43-2,10.33-.32t5.65,7.33a10.08,10.08,0,0,1-2,10.08l.12.41Q73.72,112.36,76.12,120.19Zm-17.39-8.72a6.93,6.93,0,0,0-.41-3.54,6.75,6.75,0,0,0-1.68-3.18,2.54,2.54,0,0,0-2.5-.31L52,105.1l2.65,8.66,2.23-.69A2.47,2.47,0,0,0,58.73,111.47Zm5.57,16.37c.28-.75.13-2.09-.45-4a8.44,8.44,0,0,0-2-3.83,3.06,3.06,0,0,0-3.06-.36l-2.17.67,3,9.93,2.17-.66A3.49,3.49,0,0,0,64.3,127.84Z"/><path class="cls-1" d="M113.89,121.87l-11.29,3.46-3.31-6.24-8,2.44.75,7-10.75,3.29L76.17,87.5l17.17-5.26Zm-18.3-10.29-7-14.29-.47.15,2.22,15.73Z"/><path class="cls-1" d="M148,111.43,137,114.82,122.25,98l-.54.16,6,19.54-10.28,3.15-12.85-42L116,75.31l14.48,17.61.54-.17L124.85,72.6l10.34-3.16Z"/><path class="cls-1" d="M183.73,100.5,171,104.41,161,90.14l-.67.21,4.84,15.82L154,109.6l-12.85-42,11.22-3.43,5.38,17.57.68-.2.7-19.44,12.44-3.81L170,82.52Z"/><path class="cls-1" d="M206.74,62.11a15.74,15.74,0,0,1,.77,6.64,13.56,13.56,0,0,1-2.19,5.63l11.07,16.13-12.51,3.83-8.83-13.86L193.5,81l4.63,15.15-11.36,3.47-12.84-42,15.68-4.8q6.76-2.07,10.88.14T206.74,62.11Zm-11.46,9.43a6.86,6.86,0,0,0-.39-3.92A7,7,0,0,0,193,64.13a2.93,2.93,0,0,0-2.75-.3l-1.83.56,2.9,9.46,1.75-.53A3.05,3.05,0,0,0,195.28,71.54Z"/><path class="cls-1" d="M229.62,74.78a3.75,3.75,0,0,0,3.18.14,3.53,3.53,0,0,0,2.47-1.83,5.47,5.47,0,0,0-.2-3.45l-8.61-28.13L238.09,38l8.81,28.8q2.22,7.23-.73,11.75t-10.61,6.88q-7.68,2.34-12.43.21t-6.95-9.29l-8.85-28.94,11.83-3.62,8.63,28.19A4.77,4.77,0,0,0,229.62,74.78Z"/><path class="cls-1" d="M267.16,60l-3.12,1,4.2,13.73-11.35,3.47L244,36.14l13.72-4.2q7.25-2.22,11.77,0t6.84,9.81q2.33,7.57,0,11.83T267.16,60Zm-1.51-9.52a10.14,10.14,0,0,0-.66-4.31,9.71,9.71,0,0,0-2-4,3,3,0,0,0-3.07-.39l-1.63.5,3.27,10.68,1.9-.58C264.76,52,265.48,51.34,265.65,50.45Z"/><path class="cls-1" d="M302.94,29.28l-7.84,2.4,9.72,31.78L293.26,67l-9.72-31.77-8.32,2.54-2.45-10.41,27.72-8.49Z"/><path class="cls-2" d="M67.78,118.11q3.7,12.11-9.28,16.07l-16.56,5.07-12.85-42,16.23-5q6.42-2,10.33-.31t5.64,7.33a10.06,10.06,0,0,1-2,10.08l.13.41Q65.39,110.26,67.78,118.11ZM50.4,109.38a6.93,6.93,0,0,0-.42-3.53,6.85,6.85,0,0,0-1.68-3.19,2.52,2.52,0,0,0-2.49-.3l-2.17.66,2.65,8.65,2.23-.68A2.5,2.5,0,0,0,50.4,109.38ZM56,125.76c.29-.76.14-2.09-.45-4a8.39,8.39,0,0,0-2-3.82,3.07,3.07,0,0,0-3.07-.36l-2.16.66,3,9.94,2.16-.66A3.52,3.52,0,0,0,56,125.76Z"/><path class="cls-2" d="M105.56,119.79l-11.29,3.45L91,117l-8,2.44.74,7L73,129.76,67.83,85.41,85,80.16Zm-18.31-10.3-7-14.28-.47.14,2.23,15.74Z"/><path class="cls-2" d="M139.7,109.34l-11.09,3.39-14.7-16.87-.54.17,6,19.54-10.28,3.14-12.84-42,11.42-3.5,14.48,17.6.54-.16-6.16-20.15,10.34-3.17Z"/><path class="cls-2" d="M175.4,98.42l-12.78,3.91-9.91-14.27-.68.21,4.84,15.82-11.22,3.43-12.85-42L144,62.1l5.38,17.58.67-.21L150.79,60l12.44-3.8-1.54,24.2Z"/><path class="cls-2" d="M198.4,60a15.76,15.76,0,0,1,.78,6.64A13.64,13.64,0,0,1,197,72.3l11.07,16.13-12.51,3.83-8.82-13.87-1.55.48L189.8,94l-11.36,3.48-12.85-42,15.69-4.8q6.76-2.07,10.88.15T198.4,60Zm-11.46,9.42a6.89,6.89,0,0,0-.38-3.91,7.12,7.12,0,0,0-1.88-3.49,2.89,2.89,0,0,0-2.76-.3l-1.82.56L183,71.77l1.76-.54A3,3,0,0,0,186.94,69.45Z"/><path class="cls-2" d="M221.28,72.7a3.75,3.75,0,0,0,3.18.13A3.51,3.51,0,0,0,226.94,71a5.48,5.48,0,0,0-.21-3.45l-8.6-28.13,11.62-3.56,8.82,28.81q2.2,7.23-.73,11.75T227.22,83.3q-7.66,2.36-12.43.22t-6.94-9.3L199,45.28l11.83-3.62,8.63,28.2A4.89,4.89,0,0,0,221.28,72.7Z"/><path class="cls-2" d="M258.82,57.89l-3.11,1,4.2,13.72L248.55,76l-12.85-42,13.73-4.2q7.23-2.21,11.76,0T268,39.69q2.31,7.56,0,11.83T258.82,57.89Zm-1.51-9.52a10.25,10.25,0,0,0-.65-4.31,9.7,9.7,0,0,0-2-4,3,3,0,0,0-3.08-.39l-1.62.5,3.27,10.68,1.89-.58C256.42,49.89,257.14,49.26,257.31,48.37Z"/><path class="cls-2" d="M294.61,27.2l-7.85,2.4,9.73,31.77-11.57,3.54L275.2,33.13l-8.31,2.55-2.45-10.42,27.72-8.48Z"/><rect class="cls-3" x="1.98" y="43.8" width="322.9" height="71.63" rx="12" ry="12" transform="translate(-16.06 50.8) rotate(-16.85)"/></g></g></svg>