<svg xmlns="http://www.w3.org/2000/svg" viewBox="0 0 111 151.99"><defs><style>.cls-1{fill:#666;}.cls-2{fill:#f4f4f4;}</style></defs><title>Asset 7heart</title><g id="Layer_2" data-name="Layer 2"><g id="Layer_1-2" data-name="Layer 1"><path class="cls-1" d="M100,74l8.46-8.46-7.18-7.17c3.79-3.87,12.39-13.91,8.91-22.61S93.29,23.15,69.12,23.55a9.48,9.48,0,0,1,1.29-2.18l3.22-4.07-5.16.51A9.21,9.21,0,0,1,58.28,7.63L58.64,4,55.27,5.37a9.3,9.3,0,0,1-8-.53L43.37,2.69l.69,4.42a9.24,9.24,0,0,1-2.6,8.06,9.36,9.36,0,0,1-4.53,2.48l-4.72,1.08,3.91,2.85a9.67,9.67,0,0,1,1.14.91,9.31,9.31,0,0,1,2.62,7.71L39.56,33l2.76-.32A9.2,9.2,0,0,1,52.26,39l1.17,3.57,4.41-4.83A11.58,11.58,0,0,1,67,34.21l3.83.38-1.61-3.5A9.17,9.17,0,0,1,68.44,28c29.17-.57,36.13,5.61,37.66,9.41,2.31,5.78-4,13.86-7.92,17.88l-8.79-8.79-8.88,8.88A51.46,51.46,0,1,0,100,74Z"/><path class="cls-2" d="M95.52,71.3,104,62.84l-7.17-7.18c3.79-3.86,12.38-13.91,8.9-22.61S88.81,20.47,64.64,20.86a10.09,10.09,0,0,1,1.29-2.18l3.23-4.07L64,15.13a9.31,9.31,0,0,1-7.54-2.64A9.31,9.31,0,0,1,53.81,5l.35-3.61L50.79,2.69a9.31,9.31,0,0,1-8-.53L38.89,0l.69,4.43A9.21,9.21,0,0,1,32.45,15L27.73,16l3.91,2.85a10,10,0,0,1,1.14.92,9.29,9.29,0,0,1,2.63,7.71l-.33,2.77L37.85,30a9.2,9.2,0,0,1,9.93,6.32L49,39.86,53.37,35a11.62,11.62,0,0,1,9.19-3.51l3.83.38-1.62-3.49A9.47,9.47,0,0,1,64,25.28c29.18-.58,36.14,5.6,37.66,9.4,2.31,5.78-4,13.86-7.92,17.88l-8.79-8.79L76,52.65A51.47,51.47,0,1,0,95.52,71.3Z"/></g></g></svg>