<svg xmlns="http://www.w3.org/2000/svg" viewBox="0 0 224 168.17"><defs><style>.cls-1{fill:#727272;}.cls-2{fill:#707070;}.cls-2,.cls-3{fill-rule:evenodd;}.cls-3,.cls-4{fill:#fff;}</style></defs><title>okAsset 19ok</title><g id="Layer_2" data-name="Layer 2"><g id="Layer_1-2" data-name="Layer 1"><path class="cls-1" d="M75.44,68.46v49.31a5.32,5.32,0,1,0,10.63,0V68.46a5.32,5.32,0,1,0-10.63,0Z"/><path class="cls-1" d="M58.76,123.15h11.7V64.6a7.89,7.89,0,0,0,.08-.85,45.45,45.45,0,1,1,90.89,0,7,7,0,0,0,.12,1.13v58.27h11.7A15,15,0,0,0,188,107.88V77.35a15.2,15.2,0,0,0-10.65-14.66C176.78,29.13,149.48,2,116,2S55.19,29.14,54.63,62.7A15.2,15.2,0,0,0,44,77.35v30.53A15,15,0,0,0,58.76,123.15Z"/><path class="cls-1" d="M145.94,68.46v49.31a5.32,5.32,0,1,0,10.63,0V68.46a5.32,5.32,0,1,0-10.63,0Z"/><path class="cls-2" d="M219.18,150.05h.7v-1.44h.7c.57,0,.57.2.57.75a3.26,3.26,0,0,0,.12.69H222V150c-.13-.07-.13-.14-.13-.76s-.13-.75-.44-1a.82.82,0,0,0,.57-.89,1,1,0,0,0-1.08-1h-1.78v3.71Zm.7-2.06v-1h1a.56.56,0,0,1,.51.48.5.5,0,0,1-.57.55Z"/><polygon class="cls-2" points="170.19 138.17 154.99 168.17 192.31 168.17 194.72 163.44 173.74 163.44 177.61 155.81 198.59 155.81 201.12 150.87 180.02 150.87 183.95 143.18 224 143.18 224 138.17 170.19 138.17"/><path class="cls-2" d="M133.44,138.17a8.79,8.79,0,0,0-7.54,4.53l-4.25,8.17c-2.34,4.94,2.22,4.94,2.22,4.94h15.46c.64,0,.26.69.26.69l-2.67,5.22a2.22,2.22,0,0,1-1.9,1.17h-1.46c-1.45-.14-.95-1.31-.95-1.31l.89-1.65H117.09l-2.16,4.19c-2,4,2.79,4,2.79,4h28c4.38,0,6.59-4.53,6.59-4.53l4.25-8.31c2.28-4.46-2.47-4.46-2.47-4.46h-16l2.73-5.22c1.08-2.19,2.72-2.19,2.72-2.19h1.27c1.4,0,.83,1.1.83,1.1l-1.21,2.33h16.54l2.28-4.67c2.16-4.05-2.4-4.05-2.4-4.05Z"/><path class="cls-2" d="M103.53,143.46c1.9,0,1.26,1.23,1.26,1.23l-8.62,17a3.18,3.18,0,0,1-2.78,1.71H91.23c-2.34,0-1.71-1.51-1.71-1.51l8.62-16.75c.89-1.71,2.09-1.71,2.09-1.71Zm-12.36-5.29c-5.07,0-7.73,5.29-7.73,5.29l-10,19.77c-2.54,4.94,2,4.94,2,4.94h28.14c4.69,0,7.23-4.94,7.23-4.94l10-19.77c2.73-5.29-2-5.29-2-5.29Z"/><path class="cls-2" d="M61.38,168.17s4.94,0,6.85-4l3.48-6.59c1.21-2.4-.89-4.46-.89-4.46a8.15,8.15,0,0,0,4.76-3.23l3.86-7.69c1.27-4-3.61-4-3.61-4H44.14l-12.8,25.26H2v4.74Zm-13.56-4.74L51.5,156H59c2,.07.89,2.2.89,2.2L58,161.86a2.88,2.88,0,0,1-2.41,1.57Zm17.55-20c1.78.27,1.08,2.13,1.08,2.13l-1.71,3.57a4,4,0,0,1-3,1.64H54.22l3.61-7.34Z"/><path class="cls-3" d="M217.18,148.05h.7v-1.44h.7c.57,0,.57.2.57.75a3.26,3.26,0,0,0,.12.69H220V148c-.13-.07-.13-.14-.13-.76s-.13-.75-.44-1a.82.82,0,0,0,.57-.89,1,1,0,0,0-1.08-1h-1.78v3.71Zm.7-2.06v-1h1a.56.56,0,0,1,.51.48.5.5,0,0,1-.57.55Z"/><polygon class="cls-3" points="168.19 136.17 152.99 166.17 190.31 166.17 192.72 161.44 171.74 161.44 175.61 153.81 196.59 153.81 199.12 148.87 178.02 148.87 181.95 141.18 222 141.18 222 136.17 168.19 136.17"/><path class="cls-3" d="M131.44,136.17a8.79,8.79,0,0,0-7.54,4.53l-4.25,8.17c-2.34,4.94,2.22,4.94,2.22,4.94h15.46c.64,0,.26.69.26.69l-2.67,5.22a2.22,2.22,0,0,1-1.9,1.17h-1.46c-1.45-.14-.95-1.31-.95-1.31l.89-1.65H115.09l-2.16,4.19c-2,4,2.79,4,2.79,4h28c4.38,0,6.59-4.53,6.59-4.53l4.25-8.31c2.28-4.46-2.47-4.46-2.47-4.46h-16l2.73-5.22c1.08-2.19,2.72-2.19,2.72-2.19h1.27c1.4,0,.83,1.1.83,1.1l-1.21,2.33h16.54l2.28-4.67c2.16-4.05-2.4-4.05-2.4-4.05Z"/><path class="cls-3" d="M101.53,141.46c1.9,0,1.26,1.23,1.26,1.23l-8.62,17a3.18,3.18,0,0,1-2.78,1.71H89.23c-2.34,0-1.71-1.51-1.71-1.51l8.62-16.75c.89-1.71,2.09-1.71,2.09-1.71Zm-12.36-5.29c-5.07,0-7.73,5.29-7.73,5.29l-10,19.77c-2.54,4.94,2,4.94,2,4.94h28.14c4.69,0,7.23-4.94,7.23-4.94l10-19.77c2.73-5.29-2-5.29-2-5.29Z"/><path class="cls-3" d="M59.38,166.17s4.94,0,6.85-4l3.48-6.59c1.21-2.4-.89-4.46-.89-4.46a8.15,8.15,0,0,0,4.76-3.23l3.86-7.69c1.27-4-3.61-4-3.61-4H42.14l-12.8,25.26H0v4.74Zm-13.56-4.74L49.5,154H57c2,.07.89,2.2.89,2.2L56,159.86a2.88,2.88,0,0,1-2.41,1.57Zm17.55-20c1.78.27,1.08,2.13,1.08,2.13l-1.71,3.57a4,4,0,0,1-3,1.64H52.22l3.61-7.34Z"/><path class="cls-4" d="M73.44,66.46v49.31a5.32,5.32,0,1,0,10.63,0V66.46a5.32,5.32,0,1,0-10.63,0Z"/><path class="cls-4" d="M56.76,121.15h11.7V62.6a7.89,7.89,0,0,0,.08-.85,45.45,45.45,0,1,1,90.89,0,7,7,0,0,0,.12,1.13v58.27h11.7A15,15,0,0,0,186,105.88V75.35a15.2,15.2,0,0,0-10.65-14.66C174.78,27.13,147.48,0,114,0S53.19,27.14,52.63,60.7A15.2,15.2,0,0,0,42,75.35v30.53A15,15,0,0,0,56.76,121.15Z"/><path class="cls-4" d="M143.94,66.46v49.31a5.32,5.32,0,1,0,10.63,0V66.46a5.32,5.32,0,1,0-10.63,0Z"/></g></g></svg>