<svg xmlns="http://www.w3.org/2000/svg" viewBox="0 0 100.25 136.58"><defs><style>.cls-1{fill:none;stroke:#fff;stroke-miterlimit:10;stroke-width:6px;}.cls-2{fill:#fff;}</style></defs><title>giftbox</title><g id="Layer_2" data-name="Layer 2"><g id="Layer_1-2" data-name="Layer 1"><path class="cls-1" d="M49.58,36.33c-.44-25.7,22.35-41,32.17-29.42C95.92,23.58,72.42,36.92,49.58,36.33Z"/><path class="cls-1" d="M48.32,36.92c4.48-23.09-13.9-35.18-24.23-23.87C15.53,22.42,26.38,36.92,48.32,36.92Z"/><path class="cls-2" d="M100.25,136.58H0V36.33H100.25ZM53.13,53.9A33.29,33.29,0,1,0,84.19,85,33.3,33.3,0,0,0,53.13,53.9ZM35.53,77.58c.22-10,6.19-15.84,16-15.84,9.22,0,15.12,4.39,15.12,12.38,0,11.09-11.16,12.17-11.16,21.09H47.12c0-11.3,9.29-11.74,9.29-19.29,0-3.46-2.23-5-5.9-5-4,0-6.19,2.23-6.41,6.77ZM56.77,107.1a5.55,5.55,0,1,1-11.09,0,5.55,5.55,0,1,1,11.09,0Z"/></g></g></svg>