<svg xmlns="http://www.w3.org/2000/svg" viewBox="0 0 179.31 166"><defs><style>.cls-1{fill:#fff;}</style></defs><title>Asset 25ok</title><g id="Layer_2" data-name="Layer 2"><g id="Layer_1-2" data-name="Layer 1"><rect class="cls-1" x="36.54" y="162.6" width="34.2" height="3.39"/><rect class="cls-1" x="36.54" y="147.81" width="34.2" height="3.4"/><path class="cls-1" d="M0,133v28.75A4.22,4.22,0,0,0,4.22,166H31.5v-3.4H4.22a.83.83,0,0,1-.83-.82V133Z"/><rect class="cls-1" x="36.54" y="133.03" width="34.2" height="3.39"/><path class="cls-1" d="M76.53,136.42h27.18a.83.83,0,0,1,.82.83v24.53a.82.82,0,0,1-.82.82H76.53V166h27.18a4.23,4.23,0,0,0,4.22-4.22V137.25a4.23,4.23,0,0,0-4.22-4.22H76.53Z"/><path class="cls-1" d="M165,133l-10.3,27s-.07.16-.15.16-.15-.16-.15-.16L144.12,133H116.68v2.53h13V166h2.85V135.56H142l11.25,29.55a1.49,1.49,0,0,0,2.73,0h0L168.18,133Z"/><path class="cls-1" d="M170,133h3.86v.72h-1.52v4h-.83v-4H170Z"/><path class="cls-1" d="M174.37,133h1.17l1.32,3.73h0l1.28-3.73h1.16v4.76h-.79v-3.67h0l-1.32,3.67h-.68l-1.33-3.67h0v3.67h-.79Z"/><path class="cls-1" d="M158.89,7.81H14.58a1.73,1.73,0,0,0-1.74,1.73V97.48a1.74,1.74,0,0,0,1.74,1.73H158.89a1.73,1.73,0,0,0,1.73-1.73V9.54A1.72,1.72,0,0,0,158.89,7.81Zm-1.74,87.93H16.31V11.27H157.15Z"/><path class="cls-1" d="M160.81,0H12.65A7.62,7.62,0,0,0,5,7.61V99.4A7.62,7.62,0,0,0,12.65,107H64.11l-2.74,6.64h-11a2.6,2.6,0,1,0,0,5.2h72.77a2.6,2.6,0,0,0,0-5.2h-11L109.36,107h51.46a7.63,7.63,0,0,0,7.61-7.62V7.61A7.63,7.63,0,0,0,160.81,0ZM106.47,113.66H67L69.74,107h34ZM163.22,99.4a2.41,2.41,0,0,1-2.41,2.41H12.65a2.41,2.41,0,0,1-2.41-2.41V7.61A2.41,2.41,0,0,1,12.65,5.2H160.81a2.41,2.41,0,0,1,2.41,2.41Z"/></g></g></svg>