<svg xmlns="http://www.w3.org/2000/svg" viewBox="0 0 169 151.59"><defs><style>.cls-1,.cls-3,.cls-5{fill:none;stroke-miterlimit:10;stroke-width:6px;}.cls-1{stroke:#7f7f7f;}.cls-2{fill:#7f7f7f;}.cls-3{stroke:#898989;}.cls-4{fill:#7b7b7b;}.cls-5{stroke:#fff;}.cls-6{fill:#fff;}</style></defs><title>Asset 27ok</title><g id="Layer_2" data-name="Layer 2"><g id="Layer_1-2" data-name="Layer 1"><g id="Layer_2-2" data-name="Layer 2"><g id="Layer_1-2-2" data-name="Layer 1-2"><path class="cls-1" d="M133.6,80.54c-.31-18,15.61-28.65,22.47-20.56C166,71.63,149.56,81,133.6,80.54Z"/><path class="cls-1" d="M132.72,81c3.13-16.14-9.72-24.58-16.93-16.68C109.81,70.82,117.39,81,132.72,81Z"/><path class="cls-2" d="M169,150.58H99v-70h70ZM136.08,92.81a23.26,23.26,0,1,0,21.7,24.72,24.86,24.86,0,0,0,0-3A23.27,23.27,0,0,0,136.08,92.81Zm-12.3,16.55c.15-7,4.33-11.07,11.18-11.07,6.44,0,10.56,3.07,10.56,8.65,0,7.75-7.79,8.5-7.79,14.74h-5.85c0-7.9,6.49-8.21,6.49-13.48,0-2.42-1.56-3.5-4.12-3.5-2.8,0-4.33,1.56-4.48,4.73ZM138.62,130a3.88,3.88,0,0,1-7.75.33V130a3.88,3.88,0,1,1,7.75-.33A1.82,1.82,0,0,1,138.62,130Z"/></g></g><g id="Layer_2-3" data-name="Layer 2"><g id="Layer_1-2-3" data-name="Layer 1-2"><path class="cls-1" d="M56.52,41.73C56,13.57,81-3.2,91.77,9.49,107.3,27.76,81.55,42.38,56.52,41.73Z"/><path class="cls-3" d="M55.14,42.38c4.91-25.3-15.23-38.55-26.55-26.16C19.21,26.49,31.1,42.38,55.14,42.38Z"/><path class="cls-4" d="M112.05,151.59H2.19V41.73H112.05ZM60.41,61a36.48,36.48,0,1,0,34,38.78,35.1,35.1,0,0,0,0-4.7A36.51,36.51,0,0,0,60.41,61Zm-19.28,26c.24-11,6.78-17.35,17.53-17.35,10.1,0,16.57,4.81,16.57,13.56C75.23,95.29,63,96.48,63,106.25H53.83C53.83,93.87,64,93.39,64,85.11c0-3.79-2.45-5.47-6.47-5.47-4.38,0-6.78,2.44-7,7.41ZM64.4,119.28a6.08,6.08,0,1,1-12.15.52,4.51,4.51,0,0,1,0-.52,6.08,6.08,0,0,1,12.15-.52A4.51,4.51,0,0,1,64.4,119.28Z"/></g></g><g id="Layer_2-4" data-name="Layer 2"><g id="Layer_1-2-4" data-name="Layer 1-2"><path class="cls-5" d="M54.33,39.54C53.85,11.38,78.82-5.39,89.58,7.3,105.11,25.57,79.36,40.19,54.33,39.54Z"/><path class="cls-5" d="M53,40.19C57.86,14.88,37.72,1.64,26.4,14,17,24.3,28.91,40.19,53,40.19Z"/><path class="cls-6" d="M109.85,149.39H0V39.54H109.85ZM58.22,58.79a36.42,36.42,0,1,0,34,34.08A36.48,36.48,0,0,0,58.22,58.79ZM38.93,84.74c.24-11,6.79-17.36,17.54-17.36C66.57,67.38,73,72.19,73,81c0,12.15-12.23,13.34-12.23,23.11H51.63c0-12.38,10.18-12.86,10.18-21.14,0-3.79-2.44-5.48-6.46-5.48-4.38,0-6.78,2.45-7,7.42Zm23.28,32.35a6.08,6.08,0,0,1-12.15.52,4.51,4.51,0,0,1,0-.52,6.08,6.08,0,0,1,12.15-.52A4.51,4.51,0,0,1,62.21,117.09Z"/></g></g></g></g></svg>