<svg xmlns="http://www.w3.org/2000/svg" viewBox="0 0 102.32 136.78"><defs><style>.cls-1{fill:#686868;}.cls-2{fill:#f9f9f9;}</style></defs><title>Asset 5heart</title><g id="Layer_2" data-name="Layer 2"><g id="Layer_1-2" data-name="Layer 1"><path class="cls-1" d="M32.76,40.14v-.06a21.4,21.4,0,0,1,42.8,0v.08h0V57.85H90.28V40.08C90.28,19.6,74.64,3,54.16,3S18,19.6,18,40.08V57.85H32.76Z"/><path class="cls-1" d="M6,64.54v59.54c0,7,6.27,12.7,13.29,12.7H90.35c7,0,12-5.68,12-12.7V64.54Zm62.32,54.21q-3.76,3.07-10.72,3.84v4.34H50.89V122.8a58.22,58.22,0,0,1-7.77-.74,24.18,24.18,0,0,1-6-1.71v-8.26c1.09.4,2.16.74,3.2,1s2.11.55,3.21.76,2.25.38,3.45.51,2.53.2,4,.23v-9.23a52.18,52.18,0,0,1-5.27-1,16.23,16.23,0,0,1-4.7-2,10.32,10.32,0,0,1-3.4-3.46,10.59,10.59,0,0,1-1.3-5.56,11.54,11.54,0,0,1,1-5,10.75,10.75,0,0,1,2.91-3.75,15.1,15.1,0,0,1,4.61-2.55,27.94,27.94,0,0,1,6.14-1.35V76.43h6.7v4.22a57.3,57.3,0,0,1,6.26.69A34.85,34.85,0,0,1,69.7,82.8v8.34a46.39,46.39,0,0,0-12.1-2.36v9.36a49.51,49.51,0,0,1,5.25,1.12,15.9,15.9,0,0,1,4.63,2,10.28,10.28,0,0,1,3.33,3.48,10.59,10.59,0,0,1,1.29,5.52A10.32,10.32,0,0,1,68.32,118.75Z"/><path class="cls-1" d="M45.46,93a3,3,0,0,0,1.34,2.7,10.92,10.92,0,0,0,4.09,1.44V89a7.94,7.94,0,0,0-4.25,1.37A3.3,3.3,0,0,0,45.46,93Z"/><path class="cls-1" d="M61.54,107.77a10,10,0,0,0-3.94-1.37v7.93q5.22-.67,5.22-3.88A3.09,3.09,0,0,0,61.54,107.77Z"/><path class="cls-2" d="M26.76,37.14v-.06a21.4,21.4,0,0,1,42.8,0v.08h0V54.85H84.28V37.08C84.28,16.6,68.64,0,48.16,0S12,16.6,12,37.08V54.85H26.76Z"/><path class="cls-2" d="M0,61.54v59.54c0,7,6.27,12.7,13.29,12.7H84.35c7,0,12-5.68,12-12.7V61.54Zm62.32,54.21q-3.76,3.07-10.72,3.84v4.34H44.89V119.8a58.22,58.22,0,0,1-7.77-.74,24.18,24.18,0,0,1-6-1.71v-8.26c1.09.4,2.16.74,3.2,1s2.11.55,3.21.76,2.25.38,3.45.51,2.53.2,4,.23v-9.23a52.18,52.18,0,0,1-5.27-1,16.23,16.23,0,0,1-4.7-2,10.32,10.32,0,0,1-3.4-3.46,10.59,10.59,0,0,1-1.3-5.56,11.54,11.54,0,0,1,1-5,10.75,10.75,0,0,1,2.91-3.75,15.1,15.1,0,0,1,4.61-2.55,27.94,27.94,0,0,1,6.14-1.35V73.43h6.7v4.22a57.3,57.3,0,0,1,6.26.69A34.85,34.85,0,0,1,63.7,79.8v8.34a46.39,46.39,0,0,0-12.1-2.36v9.36a49.51,49.51,0,0,1,5.25,1.12,15.9,15.9,0,0,1,4.63,2,10.28,10.28,0,0,1,3.33,3.48,10.59,10.59,0,0,1,1.29,5.52A10.32,10.32,0,0,1,62.32,115.75Z"/><path class="cls-2" d="M39.46,90a3,3,0,0,0,1.34,2.7,10.92,10.92,0,0,0,4.09,1.44V86a7.94,7.94,0,0,0-4.25,1.37A3.3,3.3,0,0,0,39.46,90Z"/><path class="cls-2" d="M55.54,104.77a10,10,0,0,0-3.94-1.37v7.93q5.22-.67,5.22-3.88A3.09,3.09,0,0,0,55.54,104.77Z"/></g></g></svg>