<svg xmlns="http://www.w3.org/2000/svg" viewBox="0 0 267.65 170.23"><defs><style>.cls-1{fill:#fff;}</style></defs><title>moneyslash</title><g id="Layer_2" data-name="Layer 2"><g id="Layer_1-2" data-name="Layer 1"><path class="cls-1" d="M153.51,131.25l-3.87,10.09c-25.21,3-72.91,3.5-107.09,11.51s-37.22,6-37.22,6C6.51,129.67-5,49.69,2.67,47c37.21-12.78,79.42-7.44,97.91-4.62l-4.79,8.05,19.76,8.64c.53,2.09-1.55,6.54-3.31,7.67-.8.51,1.58,2.47,4.42,4.45,1.31,1.13,5.45,3.07,7.24,5.18l-8.37,11.4s17.81,12.19,19,13.75c.13.16-.82,11.83-4.45,14.8s12.25,9.73,12.25,9.73Zm-14.8-6.79c-20.08,5.1-41.89,5-63.81,5.49-14.79.37-27.77.69-36.63,2.37a15.24,15.24,0,0,0-3.77-7.58c-2.88-3.09-7-4.88-12.33-5.34,0-1.31-.14-3-.27-5.19-.23-3.92-.6-9.37-1.09-16.2-.63-8.76-1.32-17.59-1.62-21.46,9.29-3.11,13.23-10,15.82-17.38,6.11-.48,30.61-1.79,80.32,2.44a4.56,4.56,0,0,0,.21-2.49L108.49,56c-58.58-5-74.65-1.8-75.61-1.69l-1.59.19L30.8,56C28,64.45,24.58,70.1,15.92,72.3l-2,.52.17,2.1c1.19,14.94,2.93,38.44,3.13,44.89l.23,4.44,2.18,0c5.08,0,8.85,1.34,11.21,3.83a10.7,10.7,0,0,1,2.76,7.11l-.2,3.41,3.31-.84c8.24-2.09,22.2-2.44,38.36-2.84,22.18-.55,50.31-1.93,70.93-7.18ZM116.66,86.29c-1.92-1.09-3-1.52-3.2-3.49-.31-2.67,1.27-6,6.42-6.57a16.24,16.24,0,0,1,3.65-.19c-2-2-5.78-3.72-7.26-5.07l.38,1.36c-6,1.72-9.49,6.38-8.84,11.93.67,5.81,5.24,8.4,12.36,10.28,5.18,1.43,8,3.4,8.47,7.08s-2.45,6.92-7.19,7.47a17.93,17.93,0,0,1-10-1.76L110.41,112A19.59,19.59,0,0,0,121,113.75l.78,6.75L126,120l-.81-6.95c6.59-1.89,9.75-8.81,9.39-11.49-2.41-2.2-6.27-4.88-19-13.75Z"/><path class="cls-1" d="M132.52,41.16c39.88-5.25,85-30.36,95.22-41.16,5.18,9.62,39.91,100.55,39.91,100.55-30.74,24.22-63,31.73-91.25,36.18,3.35-5.64,8-11.6,5.57-13s-20.38-9.85-18.42-14.45c1.38-3.23,5.47-9.59,5.28-11.79-.09-1-1.6-2.39-3-3.38-6-4.36-14.33-12.12-14.33-12.12s7.41-11.18,5.64-12.78-16-6.88-14.16-10.71,11.9-8.53,5.2-9.56c-3.75-.58-13.93,1.87-18.32.62C129.89,49.54,132.46,42,132.52,41.16Zm101.81,64.27,2.08-.79-.55-2.16c-2.86-11.26,2.82-15.39,6.46-16.85l2.22-.89-.79-2.26c-.61-1.72-14.83-42.14-16.61-46.48l-1.08-2.62-2.46,1.4a12.34,12.34,0,0,1-10,1.07,11.35,11.35,0,0,1-6.67-7l-1.12-2.82-2.56,1.63c-1.56,1-27.86,14.87-53.26,21.75h0c1,.66.28,1.67-.44,2.46S145,56,145,56c22.22-6,50.74-18.76,58.43-22.73a15.57,15.57,0,0,0,8.46,7.31,17.13,17.13,0,0,0,11.56-.21c3.15,8.52,12.18,34.11,14.85,41.67-6.62,3.66-9.38,10.58-7.75,19.49-16.93,6.16-56.8,17.4-57.18,17.51l6.22,3.41C181.18,122,218.22,111.57,234.33,105.43ZM157.42,69.74c2.88.09,3.61.93,4.78,1.43l1.16-4.6a17.94,17.94,0,0,0-9-1.33l-.75-6.48-4.14.48.73,6.28c1.26.56.32-.11,0,0C152.55,67,157.47,68.69,157.42,69.74ZM156.27,83.1a11.32,11.32,0,0,1-4.06-2.18l-.67,1c.91.82,3.16,2.83,5,4.48,4.16,4,12.07,9.06,12.26,11C169.49,89.42,162.59,85,156.27,83.1Z"/><path class="cls-1" d="M183.91,170.23c-.62-1.12-85-144.88-97.45-165.65H97.22C109.67,25.42,194,169.11,194.67,170.23Z"/></g></g></svg>