<svg xmlns="http://www.w3.org/2000/svg" viewBox="0 0 241 90.67"><defs><style>.cls-1{fill:#4c4c4c;}.cls-2{fill:#595959;}.cls-3{fill:#fcfcfc;}.cls-4{fill:#fff;}</style></defs><title>okAsset 16ok</title><g id="Layer_2" data-name="Layer 2"><g id="Layer_1-2" data-name="Layer 1"><path class="cls-1" d="M110,5.67A53.07,53.07,0,0,1,128.94,3c9.3.26,18.45,2.2,27.42,4.56q12.19,3.2,24.16,7.23c1.94.66,3.87,1.32,5.79,2a1.52,1.52,0,0,0,.93.17c.9-.2,1.81-.36,2.71-.55,0,.76,0,1.52,0,2.27l3.63-.43c0,.58,0,1.16-.05,1.74,1.2,0,2.41.07,3.62.1q-.06.72-.15,1.44c2.37.59,4.76,1.13,7.1,1.84a3.81,3.81,0,0,0,1,2.06c1.06,1.24,2.38,2.21,3.48,3.41a3.9,3.9,0,0,1,1,2.3,16.75,16.75,0,0,1-.41,4,24.67,24.67,0,0,0-.34,4.54c0,.77.47,1.45.43,2.23a3.25,3.25,0,0,1-.81,1.91c-.76.9-1.6,1.71-2.39,2.57a4.18,4.18,0,0,1-2.33,1.68c-5.79.81-11.57,1.68-17.37,2.43a2.39,2.39,0,0,0-.19-1.12c-.14-.23-.43-.11-.64-.12-1.1,0-2.19.11-3.29.05a14.6,14.6,0,0,1-16.92,8.74A14.35,14.35,0,0,1,157.9,54a15.6,15.6,0,0,1-3.15-4.69c-.64,0-1.29,0-1.93,0-.22,0-.55,0-.59.28,0,.46.14.91.11,1.37a.4.4,0,0,1-.48.37Q126,51.19,100.22,51c-6.3-.06-12.6,0-18.89-.11,0-.55.15-1.1.15-1.65a.45.45,0,0,0-.43-.45A18.18,18.18,0,0,0,79,49a11.6,11.6,0,0,1-1.88,3.43,14.87,14.87,0,0,1-8.72,5.73,15,15,0,0,1-16.6-7.85c-.26-.44-.3-1-.77-1.34a3,3,0,0,0-1.53-.11.43.43,0,0,0-.46.47c0,.78,0,1.55,0,2.32a72.24,72.24,0,0,1-14.37-1.47,33.3,33.3,0,0,1-7.87-2.58,15.45,15.45,0,0,1,1.55-2.13c-.31-3-.46-5.93-.58-8.9a25.08,25.08,0,0,1,12.42-7.78,4.14,4.14,0,0,0,1.15-.35,22.26,22.26,0,0,1,4.43-3.21A14,14,0,0,1,52,23.37a3.12,3.12,0,0,0,.68-.05A44.45,44.45,0,0,1,58,22.08c4.41-.79,8.86-1.37,13.31-1.91,3.25-.38,6.5-.76,9.76-1A9.29,9.29,0,0,0,85.44,21a20.67,20.67,0,0,0,5.93.1,26.74,26.74,0,0,1,3.18-2.53c3.13-2.2,6.38-4.21,9.64-6.21q3.5-2.13,7-4.18c.23-.14.52-.23.67-.46s-.13-.36-.26-.49c-.54-.52-1.07-1.05-1.62-1.56m8.07,2.42a25.74,25.74,0,0,0-5.47,1.85,62,62,0,0,0-8.37,4.89L94.9,21.05c-.19.15-.44.3-.48.56s.3.19.47.21a11.29,11.29,0,0,0,1.93-.08,14.55,14.55,0,0,1,2.94-3.37A7.78,7.78,0,0,1,104,16.51a2.58,2.58,0,0,1,2.09,1.11,6.68,6.68,0,0,1,1.36,3.87c10.18-.36,20.37-.67,30.55-1,1.19-3.84,2.4-7.67,3.59-11.51a.5.5,0,0,0-.45-.67,78.3,78.3,0,0,0-14.5-1.08,54.35,54.35,0,0,0-8.54.88m27.23,1.22a.44.44,0,0,0-.26.29c-.23,3.24-.52,6.47-.74,9.71,0,.29,0,.77.38.76,1.65,0,3.29-.15,4.93-.24,5-.32,9.94-.64,14.9-1.12a5.48,5.48,0,0,0,2.66-.71.7.7,0,0,0,.26-.94,4.27,4.27,0,0,0-1.66-1.34A42.24,42.24,0,0,0,159.19,13c-4.22-1.42-8.52-2.58-12.84-3.61a1.85,1.85,0,0,0-1,0m-6.93,11.5A11.78,11.78,0,0,1,139.44,22a7.25,7.25,0,0,1,1.09,5.55,22.81,22.81,0,0,1-2.05,5.58A25.11,25.11,0,0,1,133.57,41a20.69,20.69,0,0,1-4.15,3.12,18,18,0,0,1-3.2,1.25,23.29,23.29,0,0,1-6.18.53c-4.25,0-8.51.12-12.77.2q-9.27.18-18.56.38c-.37.07-.5-.36-.52-.65-.29-3.63-.56-7.27-.84-10.91-.07-.74-.08-1.5-.21-2.24a11.91,11.91,0,0,1,3.11-9.94,11,11,0,0,0,1.1-1.17c-.16-.08-.32-.25-.5-.13a5,5,0,0,0-.83.77,13,13,0,0,0-3.34,6.13,18.49,18.49,0,0,0-.15,4.27c.06,1.1.15,2.19.25,3.28.25,3.64.55,7.27.83,10.91,0,.31.35.43.62.39,8.6-.17,17.21-.42,25.81-.54l9.87-.18A14.35,14.35,0,0,0,129.15,45a19.37,19.37,0,0,0,7.44-6.68,46.47,46.47,0,0,0,3.2-6.29,20.74,20.74,0,0,0,1.46-5.34,6.64,6.64,0,0,0-.57-3.83,12.81,12.81,0,0,0-1.33-2,1.92,1.92,0,0,0-.69-.58c-.31-.1-.53.39-.28.58M51,23.72a20.39,20.39,0,0,0-5.14,2,29.31,29.31,0,0,0-6.56,5A7.82,7.82,0,0,0,38.19,32a.5.5,0,0,0-.07.47,1.71,1.71,0,0,0,1.05,0,21.36,21.36,0,0,0,6-2.4A26,26,0,0,0,52,24.44c.15-.21.48-.57.18-.78a2.37,2.37,0,0,0-1.12.06m151,1.56c-2.41.26-4.81.54-7.22.83-2.25.24-4.49.55-6.74.73a1,1,0,0,0-.26.2,3,3,0,0,0,1.18.77,10.94,10.94,0,0,0,4.91,1.25c3.67,0,7.34-.13,11-.17.18,0,.42,0,.5-.2a1.2,1.2,0,0,0-.06-.62A11.51,11.51,0,0,0,204,25.13c-.66,0-1.32.09-2,.15m-138.62,6a12.37,12.37,0,0,0-6.83,3.39,9.92,9.92,0,0,0-2.28,3.06,14.24,14.24,0,0,0-1.41,5.47,11.14,11.14,0,0,0,1,5,13.6,13.6,0,0,0,3.47,4.56,7,7,0,0,0,2,1.32,15.16,15.16,0,0,0,6.17,1.37,11.52,11.52,0,0,0,5.35-1.42A8.1,8.1,0,0,0,73,52.58a13.78,13.78,0,0,0,4.18-8,12.32,12.32,0,0,0-3.69-9.89,16.55,16.55,0,0,0-4.11-2.53,11.42,11.42,0,0,0-5.91-.85m104.29-.06a14.49,14.49,0,0,0-4.94,1.44,11,11,0,0,0-3.55,2.85,13.62,13.62,0,0,0-2.87,9.41,11.71,11.71,0,0,0,2.31,5.67,12.6,12.6,0,0,0,7,4.83,9.81,9.81,0,0,0,3,.22,12.79,12.79,0,0,0,7.73-3,12.44,12.44,0,0,0,4.11-8.11A12.28,12.28,0,0,0,177.21,35a11.64,11.64,0,0,0-9.49-3.73M29.19,37.44a1.81,1.81,0,0,0-.55,1.72c.08.39.53.51.69.86a5.1,5.1,0,0,1,.22,1c.14.22.45.15.67.16.9,0,1.8,0,2.7,0,.43,0,.24-.56.25-.84a1.83,1.83,0,0,1,.61-.11c1.3,0,2.6,0,3.89,0a4.72,4.72,0,0,0-2.12-2.85,6.85,6.85,0,0,0-4.07-.8,3.8,3.8,0,0,0-2.29.85M30,41.69a.28.28,0,0,0-.18.33c.09.41.14.83.22,1.24,0,.21.16.48.41.47H33a.36.36,0,0,0,.42-.25,6.75,6.75,0,0,0-.06-1.35.5.5,0,0,0-.45-.47c-.71,0-1.43,0-2.14,0a2,2,0,0,0-.84.08m.29,2.67c.11.75.3,1.48.45,2.22A2.47,2.47,0,0,0,32.25,46a3.2,3.2,0,0,0,1-1.78,9.14,9.14,0,0,0-2.45-.08C30.6,44.19,30.29,44.12,30.24,44.36Z"/><path class="cls-1" d="M99,10.78c3.48-1.67,6.93-3.42,10.48-4.94.34.51.65,1,1,1.55a.29.29,0,0,1-.1.48c-2.66,1.47-5.24,3.11-7.81,4.75q-5.73,3.66-11.39,7.46c-.25.15-.46.39-.76.41a20.36,20.36,0,0,1-5.88-.43,10.42,10.42,0,0,1-2.7-1c1.69-.7,3.32-1.53,5-2.31C90.91,14.78,95,12.77,99,10.78Z"/><path class="cls-1" d="M64.11,32.15a11.76,11.76,0,0,1,9,3.25,11.36,11.36,0,0,1,2.75,4.7,11.73,11.73,0,0,1,.57,4.36,11.18,11.18,0,0,1-4.67,8.18,12,12,0,0,1-5.75,2,10.79,10.79,0,0,1-4.11-.47,12.41,12.41,0,0,1-5.06-2.79,9.41,9.41,0,0,1-2.48-3.82A11.86,11.86,0,0,1,54,42a12.6,12.6,0,0,1,2-5.4,9.58,9.58,0,0,1,3.24-3A13.44,13.44,0,0,1,64.11,32.15Z"/><path class="cls-1" d="M167.86,32.15a10.74,10.74,0,0,1,5.81,1.12,11.21,11.21,0,0,1,5.68,6.67,12.8,12.8,0,0,1,.29,5.87,10.87,10.87,0,0,1-2.57,5.4,10.75,10.75,0,0,1-5.86,3.21,11.83,11.83,0,0,1-3.41.2,11.13,11.13,0,0,1-5.66-1.88,11.72,11.72,0,0,1-3.89-4.91,9.54,9.54,0,0,1-.91-3,11.91,11.91,0,0,1,3.36-9.58A12,12,0,0,1,167.86,32.15Z"/><path class="cls-2" d="M30.22,64.93H4.52A3.51,3.51,0,0,0,1,68.44V87a3.52,3.52,0,1,0,7,0V82.92l22.16.14h0a3.53,3.53,0,0,0,2.47-1,3.5,3.5,0,0,0,1-2.49V68.44A3.51,3.51,0,0,0,30.22,64.93ZM26.7,76,8,75.89V72H26.7Z"/><path class="cls-2" d="M63.31,64.93H41.15a5.33,5.33,0,0,0-5.28,5.37V85.18a5.34,5.34,0,0,0,5.27,5.38l22.15.06h0A5.2,5.2,0,0,0,67,89.09a5.39,5.39,0,0,0,1.59-3.84v-15A5.34,5.34,0,0,0,63.31,64.93ZM61.57,83.59,42.9,83.53V72H61.57Z"/><path class="cls-2" d="M202.85,64.93a3.51,3.51,0,0,0-3.51,3.51v5.81l-18.67-.06V68.44a3.52,3.52,0,0,0-7,0V87a3.52,3.52,0,1,0,7,0v-5.8l18.67,0v5.83a3.52,3.52,0,1,0,7,0V68.44A3.51,3.51,0,0,0,202.85,64.93Z"/><path class="cls-2" d="M237.47,81.29h0a3.52,3.52,0,0,0,0-7l-22.2-.07V71.93l22.17.07h0a3.52,3.52,0,1,0,0-7l-25.7-.08h0a3.51,3.51,0,0,0-3.51,3.5V87.05h0a3.51,3.51,0,0,0,3.5,3.53l25.7.08h0a3.52,3.52,0,1,0,0-7l-22.19-.07V81.23Z"/><path class="cls-2" d="M168.3,72a3.52,3.52,0,1,0,0-7H146.15a5.34,5.34,0,0,0-5.29,5.37V85.18a5.34,5.34,0,0,0,5.27,5.38l22.16.06h0a3.52,3.52,0,0,0,0-7l-20.42-.06V72Z"/><path class="cls-2" d="M134.2,72a3.52,3.52,0,1,0,0-7H110.28A5.34,5.34,0,0,0,105,70.3v5.58a5.34,5.34,0,0,0,5.29,5.37h20.41v2.34l-22.17-.07h0a3.52,3.52,0,0,0,0,7l23.93.07h0a5.19,5.19,0,0,0,3.7-1.53,5.35,5.35,0,0,0,1.59-3.84V79.6a5.34,5.34,0,0,0-5.29-5.38H112V72Z"/><path class="cls-2" d="M101.16,82.54a3.45,3.45,0,0,0,.64-.5,3.54,3.54,0,0,0,1-2.49V68.44a3.52,3.52,0,0,0-3.52-3.51H73.62a3.51,3.51,0,0,0-3.51,3.51V87a3.52,3.52,0,1,0,7,0V82.92L93.69,83l2.41,5.5a3.52,3.52,0,0,0,6.44-2.83ZM77.14,72H95.81V76l-18.67-.12Z"/><path class="cls-3" d="M29.22,62.93H3.52A3.51,3.51,0,0,0,0,66.44V85a3.52,3.52,0,1,0,7,0V80.92l22.16.14h0a3.53,3.53,0,0,0,2.47-1,3.5,3.5,0,0,0,1-2.49V66.44A3.51,3.51,0,0,0,29.22,62.93ZM25.7,74,7,73.89V70H25.7Z"/><path class="cls-3" d="M62.31,62.93H40.15a5.33,5.33,0,0,0-5.28,5.37V83.18a5.34,5.34,0,0,0,5.27,5.38l22.15.06h0A5.2,5.2,0,0,0,66,87.09a5.39,5.39,0,0,0,1.59-3.84v-15A5.34,5.34,0,0,0,62.31,62.93ZM60.57,81.59,41.9,81.53V70H60.57Z"/><path class="cls-3" d="M201.85,62.93a3.51,3.51,0,0,0-3.51,3.51v5.81l-18.67-.06V66.44a3.52,3.52,0,0,0-7,0V85a3.52,3.52,0,1,0,7,0v-5.8l18.67,0v5.83a3.52,3.52,0,1,0,7,0V66.44A3.51,3.51,0,0,0,201.85,62.93Z"/><path class="cls-3" d="M236.47,79.29h0a3.52,3.52,0,0,0,0-7l-22.2-.07V69.93l22.17.07h0a3.52,3.52,0,1,0,0-7l-25.7-.08h0a3.51,3.51,0,0,0-3.51,3.5V85.05h0a3.51,3.51,0,0,0,3.5,3.53l25.7.08h0a3.52,3.52,0,1,0,0-7l-22.19-.07V79.23Z"/><path class="cls-3" d="M167.3,70a3.52,3.52,0,1,0,0-7H145.15a5.34,5.34,0,0,0-5.29,5.37V83.18a5.34,5.34,0,0,0,5.27,5.38l22.16.06h0a3.52,3.52,0,0,0,0-7l-20.42-.06V70Z"/><path class="cls-3" d="M133.2,70a3.52,3.52,0,1,0,0-7H109.28A5.34,5.34,0,0,0,104,68.3v5.58a5.34,5.34,0,0,0,5.29,5.37h20.41v2.34l-22.17-.07h0a3.52,3.52,0,0,0,0,7l23.93.07h0a5.19,5.19,0,0,0,3.7-1.53,5.35,5.35,0,0,0,1.59-3.84V77.6a5.34,5.34,0,0,0-5.29-5.38H111V70Z"/><path class="cls-3" d="M100.16,80.54a3.45,3.45,0,0,0,.64-.5,3.54,3.54,0,0,0,1-2.49V66.44a3.52,3.52,0,0,0-3.52-3.51H72.62a3.51,3.51,0,0,0-3.51,3.51V85a3.52,3.52,0,1,0,7,0V80.92L92.69,81l2.41,5.5a3.52,3.52,0,0,0,6.44-2.83ZM76.14,70H94.81V74l-18.67-.12Z"/><path class="cls-4" d="M106,2.67A53.07,53.07,0,0,1,124.94,0c9.3.26,18.45,2.2,27.42,4.56q12.19,3.2,24.16,7.23c1.94.66,3.87,1.32,5.79,2a1.52,1.52,0,0,0,.93.17c.9-.2,1.81-.36,2.71-.55,0,.76,0,1.52,0,2.27l3.63-.43c0,.58,0,1.16-.05,1.74,1.2,0,2.41.07,3.62.1q-.06.72-.15,1.44c2.37.59,4.76,1.13,7.1,1.84a3.81,3.81,0,0,0,1,2.06c1.06,1.24,2.38,2.21,3.48,3.41a3.9,3.9,0,0,1,1,2.3,16.75,16.75,0,0,1-.41,4,24.67,24.67,0,0,0-.34,4.54c0,.77.47,1.45.43,2.23a3.25,3.25,0,0,1-.81,1.91c-.76.9-1.6,1.71-2.39,2.57a4.18,4.18,0,0,1-2.33,1.68c-5.79.81-11.57,1.68-17.37,2.43a2.39,2.39,0,0,0-.19-1.12c-.14-.23-.43-.11-.64-.12-1.1,0-2.19.11-3.29.05a14.6,14.6,0,0,1-16.92,8.74A14.35,14.35,0,0,1,153.9,51a15.6,15.6,0,0,1-3.15-4.69c-.64,0-1.29,0-1.93,0-.22,0-.55,0-.59.28,0,.46.14.91.11,1.37a.4.4,0,0,1-.48.37Q122,48.19,96.22,48c-6.3-.06-12.6,0-18.89-.11,0-.55.15-1.1.15-1.65a.45.45,0,0,0-.43-.45A18.18,18.18,0,0,0,75,46a11.6,11.6,0,0,1-1.88,3.43,14.87,14.87,0,0,1-8.72,5.73,15,15,0,0,1-16.6-7.85c-.26-.44-.3-1-.77-1.34a3,3,0,0,0-1.53-.11.43.43,0,0,0-.46.47c0,.78,0,1.55,0,2.32a72.24,72.24,0,0,1-14.37-1.47,33.3,33.3,0,0,1-7.87-2.58,15.45,15.45,0,0,1,1.55-2.13c-.31-3-.46-5.93-.58-8.9a25.08,25.08,0,0,1,12.42-7.78,4.14,4.14,0,0,0,1.15-.35,22.26,22.26,0,0,1,4.43-3.21A14,14,0,0,1,48,20.37a3.12,3.12,0,0,0,.68-.05A44.45,44.45,0,0,1,54,19.08c4.41-.79,8.86-1.37,13.31-1.91,3.25-.38,6.5-.76,9.76-1A9.29,9.29,0,0,0,81.44,18a20.67,20.67,0,0,0,5.93.1,26.74,26.74,0,0,1,3.18-2.53c3.13-2.2,6.38-4.21,9.64-6.21q3.5-2.13,7-4.18c.23-.14.52-.23.67-.46s-.13-.36-.26-.49c-.54-.52-1.07-1.05-1.62-1.56m8.07,2.42a25.74,25.74,0,0,0-5.47,1.85,62,62,0,0,0-8.37,4.89L90.9,18.05c-.19.15-.44.3-.48.56s.3.19.47.21a11.29,11.29,0,0,0,1.93-.08,14.55,14.55,0,0,1,2.94-3.37A7.78,7.78,0,0,1,100,13.51a2.58,2.58,0,0,1,2.09,1.11,6.68,6.68,0,0,1,1.36,3.87c10.18-.36,20.37-.67,30.55-1,1.19-3.84,2.4-7.67,3.59-11.51a.5.5,0,0,0-.45-.67,78.3,78.3,0,0,0-14.5-1.08,54.35,54.35,0,0,0-8.54.88m27.23,1.22a.44.44,0,0,0-.26.29c-.23,3.24-.52,6.47-.74,9.71,0,.29,0,.77.38.76,1.65,0,3.29-.15,4.93-.24,5-.32,9.94-.64,14.9-1.12a5.48,5.48,0,0,0,2.66-.71.7.7,0,0,0,.26-.94,4.27,4.27,0,0,0-1.66-1.34A42.24,42.24,0,0,0,155.19,10c-4.22-1.42-8.52-2.58-12.84-3.61a1.85,1.85,0,0,0-1-.05m-6.93,11.5A11.78,11.78,0,0,1,135.44,19a7.25,7.25,0,0,1,1.09,5.55,22.81,22.81,0,0,1-2.05,5.58A25.11,25.11,0,0,1,129.57,38a20.69,20.69,0,0,1-4.15,3.12,18,18,0,0,1-3.2,1.25,23.29,23.29,0,0,1-6.18.53c-4.25,0-8.51.12-12.77.2q-9.27.18-18.56.38c-.37.07-.5-.36-.52-.65-.29-3.63-.56-7.27-.84-10.91-.07-.74-.08-1.5-.21-2.24a11.91,11.91,0,0,1,3.11-9.94,11,11,0,0,0,1.1-1.17c-.16-.08-.32-.25-.5-.13a5,5,0,0,0-.83.77,13,13,0,0,0-3.34,6.13,18.49,18.49,0,0,0-.15,4.27c.06,1.1.15,2.19.25,3.28.25,3.64.55,7.27.83,10.91,0,.31.35.43.62.39,8.6-.17,17.21-.42,25.81-.54l9.87-.18A14.35,14.35,0,0,0,125.15,42a19.37,19.37,0,0,0,7.44-6.68,46.47,46.47,0,0,0,3.2-6.29,20.74,20.74,0,0,0,1.46-5.34,6.64,6.64,0,0,0-.57-3.83,12.81,12.81,0,0,0-1.33-2,1.92,1.92,0,0,0-.69-.58c-.31-.1-.53.39-.28.58M47,20.72a20.39,20.39,0,0,0-5.14,2,29.31,29.31,0,0,0-6.56,5A7.82,7.82,0,0,0,34.19,29a.5.5,0,0,0-.07.47,1.71,1.71,0,0,0,1.05,0,21.36,21.36,0,0,0,6-2.4A26,26,0,0,0,48,21.44c.15-.21.48-.57.18-.78a2.37,2.37,0,0,0-1.12.06m151,1.56c-2.41.26-4.81.54-7.22.83-2.25.24-4.49.55-6.74.73a1,1,0,0,0-.26.2,3,3,0,0,0,1.18.77,10.94,10.94,0,0,0,4.91,1.25c3.67,0,7.34-.13,11-.17.18,0,.42,0,.5-.2a1.2,1.2,0,0,0-.06-.62A11.51,11.51,0,0,0,200,22.13c-.66,0-1.32.09-2,.15m-138.62,6a12.37,12.37,0,0,0-6.83,3.39,9.92,9.92,0,0,0-2.28,3.06,14.24,14.24,0,0,0-1.41,5.47,11.14,11.14,0,0,0,1,5,13.6,13.6,0,0,0,3.47,4.56,7,7,0,0,0,2,1.32,15.16,15.16,0,0,0,6.17,1.37,11.52,11.52,0,0,0,5.35-1.42A8.1,8.1,0,0,0,69,49.58a13.78,13.78,0,0,0,4.18-8,12.32,12.32,0,0,0-3.69-9.89,16.55,16.55,0,0,0-4.11-2.53,11.42,11.42,0,0,0-5.91-.85m104.29-.06a14.49,14.49,0,0,0-4.94,1.44,11,11,0,0,0-3.55,2.85,13.62,13.62,0,0,0-2.87,9.41,11.71,11.71,0,0,0,2.31,5.67,12.6,12.6,0,0,0,7,4.83,9.81,9.81,0,0,0,3,.22,12.79,12.79,0,0,0,7.73-3,12.44,12.44,0,0,0,4.11-8.11A12.28,12.28,0,0,0,173.21,32a11.64,11.64,0,0,0-9.49-3.73M25.19,34.44a1.81,1.81,0,0,0-.55,1.72c.08.39.53.51.69.86a5.1,5.1,0,0,1,.22,1c.14.22.45.15.67.16.9,0,1.8,0,2.7,0,.43,0,.24-.56.25-.84a1.83,1.83,0,0,1,.61-.11c1.3,0,2.6,0,3.89,0a4.72,4.72,0,0,0-2.12-2.85,6.85,6.85,0,0,0-4.07-.8,3.8,3.8,0,0,0-2.29.85M26,38.69a.28.28,0,0,0-.18.33c.09.41.14.83.22,1.24,0,.21.16.48.41.47H29a.36.36,0,0,0,.42-.25,6.75,6.75,0,0,0-.06-1.35.5.5,0,0,0-.45-.47c-.71,0-1.43,0-2.14,0a2,2,0,0,0-.84.08m.29,2.67c.11.75.3,1.48.45,2.22A2.47,2.47,0,0,0,28.25,43a3.2,3.2,0,0,0,1-1.78,9.14,9.14,0,0,0-2.45-.08C26.6,41.19,26.29,41.12,26.24,41.36Z"/><path class="cls-4" d="M95,7.78c3.48-1.67,6.93-3.42,10.48-4.94.34.51.65,1.05,1,1.55a.29.29,0,0,1-.1.48c-2.66,1.47-5.24,3.11-7.81,4.75q-5.73,3.66-11.39,7.46c-.25.15-.46.39-.76.41a20.36,20.36,0,0,1-5.88-.43,10.42,10.42,0,0,1-2.7-1c1.69-.7,3.32-1.53,5-2.31C86.91,11.78,91,9.77,95,7.78Z"/><path class="cls-4" d="M60.11,29.15a11.76,11.76,0,0,1,9,3.25,11.36,11.36,0,0,1,2.75,4.7,11.73,11.73,0,0,1,.57,4.36,11.18,11.18,0,0,1-4.67,8.18,12,12,0,0,1-5.75,2,10.79,10.79,0,0,1-4.11-.47,12.41,12.41,0,0,1-5.06-2.79,9.41,9.41,0,0,1-2.48-3.82A11.86,11.86,0,0,1,50,39a12.6,12.6,0,0,1,2-5.4,9.58,9.58,0,0,1,3.24-3A13.44,13.44,0,0,1,60.11,29.15Z"/><path class="cls-4" d="M163.86,29.15a10.74,10.74,0,0,1,5.81,1.12,11.21,11.21,0,0,1,5.68,6.67,12.8,12.8,0,0,1,.29,5.87,10.87,10.87,0,0,1-2.57,5.4,10.75,10.75,0,0,1-5.86,3.21,11.83,11.83,0,0,1-3.41.2,11.13,11.13,0,0,1-5.66-1.88,11.72,11.72,0,0,1-3.89-4.91,9.54,9.54,0,0,1-.91-3,11.91,11.91,0,0,1,3.36-9.58A12,12,0,0,1,163.86,29.15Z"/></g></g></svg>