<svg xmlns="http://www.w3.org/2000/svg" viewBox="0 0 163 152.83"><defs><style>.cls-1,.cls-3{fill:none;stroke-miterlimit:10;stroke-width:6px;}.cls-1{stroke:#7f7f7f;}.cls-2{fill:#7f7f7f;}.cls-3{stroke:#fff;}.cls-4{fill:#fff;}</style></defs><title>Asset 26ok</title><g id="Layer_2" data-name="Layer 2"><g id="Layer_1-2" data-name="Layer 1"><g id="Layer_2-2" data-name="Layer 2"><g id="Layer_1-2-2" data-name="Layer 1-2"><path class="cls-1" d="M129.71,87c-.29-16.89,14.68-26.94,21.13-19.34C160.15,78.58,144.71,87.34,129.71,87Z"/><path class="cls-1" d="M128.88,87.34c2.94-15.17-9.14-23.11-15.92-15.68C107.33,77.82,114.46,87.34,128.88,87.34Z"/><path class="cls-2" d="M163,152.83H97.13V87H163ZM132,98.5a21.89,21.89,0,1,0,20.41,20.44A21.87,21.87,0,0,0,132,98.5Zm-11.57,15.56c.15-6.57,4.07-10.41,10.52-10.41,6.06,0,9.93,2.89,9.93,8.14,0,7.28-7.33,8-7.33,13.86h-5.5c0-7.43,6.1-7.72,6.1-12.68,0-2.27-1.46-3.29-3.87-3.29-2.63,0-4.07,1.47-4.22,4.45Zm14,19.4a3.65,3.65,0,1,1-7.29.31v-.31a3.65,3.65,0,1,1,7.29-.31Z"/></g></g><g id="Layer_2-3" data-name="Layer 2"><g id="Layer_1-2-3" data-name="Layer 1-2"><path class="cls-1" d="M55.15,40.09C54.66,11.5,80-5.52,90.94,7.37,106.7,25.91,80.56,40.75,55.15,40.09Z"/><path class="cls-1" d="M53.75,40.75c5-25.69-15.46-39.13-26.95-26.55C17.28,24.62,29.35,40.75,53.75,40.75Z"/><path class="cls-2" d="M111.52,151.61H0V40.09H111.52Zm-52.42-92A37,37,0,1,0,93.65,99a38,38,0,0,0,0-4.77A37,37,0,0,0,59.1,59.64ZM39.52,86c.25-11.12,6.89-17.62,17.8-17.62,10.26,0,16.82,4.88,16.82,13.77,0,12.34-12.41,13.54-12.41,23.46H52.42c0-12.57,10.33-13.06,10.33-21.46,0-3.85-2.48-5.56-6.56-5.56-4.45,0-6.89,2.48-7.13,7.53Zm23.63,32.84a6.18,6.18,0,1,1-12.34.52v-.52a6.18,6.18,0,0,1,12.34-.53A4.69,4.69,0,0,1,63.15,118.82Z"/></g></g><g id="Layer_2-4" data-name="Layer 2"><g id="Layer_1-2-4" data-name="Layer 1-2"><path class="cls-3" d="M126.36,85.28C126.07,68.4,141,58.34,147.5,66,156.81,76.9,141.37,85.67,126.36,85.28Z"/><path class="cls-3" d="M125.53,85.67C128.47,70.5,116.4,62.55,109.61,70,104,76.14,111.11,85.67,125.53,85.67Z"/><path class="cls-4" d="M159.65,151.16H93.78V85.28h65.87Zm-31-54.33a21.87,21.87,0,1,0,20.41,23.25,22.11,22.11,0,0,0,0-2.82A21.87,21.87,0,0,0,128.69,96.83Zm-11.56,15.56c.14-6.57,4.06-10.41,10.51-10.41,6.06,0,9.93,2.88,9.93,8.13,0,7.29-7.33,8-7.33,13.86h-5.5c0-7.42,6.11-7.71,6.11-12.67,0-2.28-1.47-3.29-3.88-3.29-2.63,0-4.07,1.47-4.21,4.45Zm14,19.39a3.64,3.64,0,1,1-7.28.31,1.6,1.6,0,0,1,0-.31,3.64,3.64,0,0,1,7.28-.31A1.6,1.6,0,0,1,131.08,131.78Z"/></g></g></g></g></svg>