<svg xmlns="http://www.w3.org/2000/svg" viewBox="0 0 182 167.63"><defs><style>.cls-1{fill:#727272;}.cls-1,.cls-4{fill-rule:evenodd;}.cls-2{fill:#666;}.cls-3,.cls-4{fill:#fff;}</style></defs><title>okAsset 20ok</title><g id="Layer_2" data-name="Layer 2"><g id="Layer_1-2" data-name="Layer 1"><path class="cls-1" d="M135.33,162.42h-5.92V162c0-3,0-6.08,0-9.11a5.91,5.91,0,0,0-.09-1.19,2.07,2.07,0,0,0-2.65-1.74,2.88,2.88,0,0,0-2.31,2.42,7.18,7.18,0,0,0-.18,1.67c0,2.63,0,5.26,0,7.89v.42h-5.91V145.75l5.46-.82v3.19c.05,0,.2-.08.27-.15a8.59,8.59,0,0,1,3.28-2.54,6.24,6.24,0,0,1,5.77.34,5.3,5.3,0,0,1,1.77,2c0,.1.11.2.17.3.44-.46.84-.92,1.29-1.33a6.92,6.92,0,0,1,6.44-1.68,4.33,4.33,0,0,1,3.5,3.62,12,12,0,0,1,.27,2.4c0,3.63,0,7.27,0,10.9v.39h-5.9V162c0-3.18,0-6.36,0-9.54a3.75,3.75,0,0,0-.1-.82,2.07,2.07,0,0,0-2.62-1.66,2.8,2.8,0,0,0-2.25,2.18,6.55,6.55,0,0,0-.24,1.76c0,2.69,0,5.37,0,8.05ZM46.07,135.33l1,2.56Q52,150,56.88,162.11a.44.44,0,0,0,.5.33h4.39a.46.46,0,0,0,.51-.34l7-17.08a24.37,24.37,0,0,1,3.35-6.16,9.23,9.23,0,0,1,5.12-3.53c.71-.17,1.44-.24,2.16-.35.2,0,.35-.06.32-.32L80,134.6l-.19,0a18.52,18.52,0,0,0-4.93-.2,14.48,14.48,0,0,0-5.6,1.63A13.7,13.7,0,0,0,63,143.08c-1.06,2.54-2,5.12-3,7.69-.13.34-.27.68-.43,1.07-.06-.14-.1-.22-.13-.3q-3.12-8.11-6.22-16.24a.44.44,0,0,0-.48-.33H46C46,135.13,46,135.23,46.07,135.33Zm63.22,27.61c.08.25.18.3.43.23l3.7-.91,1.94-.48-.07-.23a8.53,8.53,0,0,1-.66-3.7c0-4.16,0-8.33,0-12.5V145h-.2c-1.4.21-2.8.41-4.2.64a2.15,2.15,0,0,1-1.25-.14,8.6,8.6,0,0,0-4.67-.65,8.35,8.35,0,0,0-5.81,3.44A9.4,9.4,0,0,0,96.73,153a10.35,10.35,0,0,0,1.61,7,7.39,7.39,0,0,0,9.49,2.46c.36-.18.68-.41,1-.63C109,162.2,109.18,162.57,109.29,162.94Zm-.6-5.54a.68.68,0,0,1-.14.42,3.22,3.22,0,0,1-4.62.16,4.18,4.18,0,0,1-1.3-2.45,6,6,0,0,1,1-5,3.69,3.69,0,0,1,4.87-1,.53.53,0,0,1,.19.4c0,1.25,0,2.5,0,3.75S108.7,156.17,108.69,157.4Zm59,.92c.9,1.28,1.8,2.55,2.69,3.84a.56.56,0,0,0,.54.28h6.25l.36,0-.22-.33c-2-2.79-4-5.59-6-8.37a.46.46,0,0,1,0-.66c1.85-2.39,3.68-4.79,5.52-7.19.11-.14.21-.27.32-.43l-.14,0h-5.45a.51.51,0,0,0-.34.2c-.86,1.08-1.7,2.18-2.55,3.27l-.38.47a1.3,1.3,0,0,1-.17-.21c-.83-1.16-1.66-2.32-2.48-3.49a.53.53,0,0,0-.49-.26H159l-.33,0c.11.14.17.25.25.36q2.81,4,5.62,7.91a.44.44,0,0,1,0,.65q-2.37,3-4.72,6.09l-1.53,2,.27,0h5.35a.57.57,0,0,0,.4-.21c.66-.82,1.3-1.66,1.94-2.49l1.31-1.69A2.51,2.51,0,0,1,167.72,158.32ZM85.65,140.15c0,.13,0,.23,0,.33,0,1.52,0,3,0,4.55,0,.28-.08.36-.36.36-.61,0-1.22,0-1.82,0-.28,0-.34.08-.34.34,0,1.27,0,2.55,0,3.82,0,.1,0,.19,0,.33h2c.5,0,.5,0,.51.49,0,2.88,0,5.76.08,8.64a4.52,4.52,0,0,0,.62,2.35,2.07,2.07,0,0,0,1.9,1.1c2,0,4,0,5.92,0l.37,0,0-.09-.28-.16a6.75,6.75,0,0,1-1.15-.72,4.68,4.68,0,0,1-1.45-3.62c0-2.52,0-5,0-7.58,0-.11,0-.23,0-.37h3.65c.25,0,.35-.05.35-.33,0-1.27,0-2.55,0-3.82,0-.29-.11-.35-.37-.34H91.68v-6.14Zm70.15,5.46-5.59.82c-.24,0-.29.15-.29.37q0,7.65,0,15.29c0,.27.08.35.36.35h5.32l.3,0V145.63Zm-76.37.06c-1.74.26-3.48.52-5.22.76-.24,0-.3.13-.3.36q0,7.65,0,15.3c0,.27.08.35.36.35h5.28l.34,0V145.6Zm76-6.37c-1.75.27-3.49.53-5.24.78-.24,0-.34.13-.34.38,0,1.17,0,2.35,0,3.52a2.12,2.12,0,0,0,0,.24h.21c1.82-.27,3.63-.55,5.45-.8.25,0,.34-.11.33-.37,0-1.16,0-2.32,0-3.49,0-.08,0-.17,0-.28Zm-75.74,0-5.58.82c-.24,0-.24.18-.24.35,0,1.17,0,2.33,0,3.49,0,.1,0,.19,0,.31l6-.88v-4.09Zm98.9,21.47a1.69,1.69,0,1,1,1.68,1.67,1.68,1.68,0,0,1-1.68-1.67Zm.22,0a1.47,1.47,0,1,0,1.46-1.47,1.46,1.46,0,0,0-1.46,1.47Zm1-.79v.72h.69c.26,0,.36-.14.36-.37s-.1-.35-.36-.35Zm0,.95v.84h-.26v-2h.95c.42,0,.63.21.63.55a.54.54,0,0,0-.07.94c0,.09,0,.16,0,.23a.47.47,0,0,0,.07.26v0h-.29a1.79,1.79,0,0,1-.05-.25,1.52,1.52,0,0,0,0-.23c0-.23-.11-.36-.32-.36Z"/><path class="cls-1" d="M9.28,149.5c-.35-.7-.7-1.32-1-2a18.72,18.72,0,0,1-1.68-8.78,16.55,16.55,0,0,1,.65-3.95.87.87,0,0,1,.2-.38,19.58,19.58,0,0,1,4.89-3.73l.18-.07c-.22.62-.44,1.19-.63,1.78a18.64,18.64,0,0,0-.81,7.08,16.38,16.38,0,0,0,3.64,9.31,15.25,15.25,0,0,0,5.5,4.24l.47.23a2.7,2.7,0,0,1-.33.21,17.88,17.88,0,0,1-9.27,2.27,14.13,14.13,0,0,1-8.4-3.15.94.94,0,0,1-.28-.53,19.84,19.84,0,0,1,.24-9.13c0-.06,0-.11,0-.16l.07-.1A11,11,0,0,0,9.28,149.5Zm31.34,3.79c.19-1.18.41-2.37.54-3.56a18.19,18.19,0,0,0-.36-5.93.87.87,0,0,0-.28-.42,14.3,14.3,0,0,0-10.37-3.08,18.29,18.29,0,0,0-7.24,2.22c-.11,0-.2.12-.35.2l.31.17c5.79,2.78,8.76,7.49,9.31,13.79A17.69,17.69,0,0,1,31,164.59c-.1.25-.19.5-.3.79l.19-.06a19.56,19.56,0,0,0,4.91-3.76.86.86,0,0,0,.18-.34,17.92,17.92,0,0,0,.59-6.64,18.41,18.41,0,0,0-2.51-7.82c0-.06,0-.13-.11-.25a11,11,0,0,1,6.5,6.79ZM26.86,129.08a19.55,19.55,0,0,0-9.43-.24.83.83,0,0,0-.42.27,14,14,0,0,0-3.09,8,17.76,17.76,0,0,0,2.24,9.67l.2.32.19-.38a14.74,14.74,0,0,1,1.86-3.1,16,16,0,0,1,11.27-6.09,17.9,17.9,0,0,1,8.94,1.29c.12.05.24.08.39.13a1.23,1.23,0,0,0,0-.13,19.75,19.75,0,0,0-3.68-4.89,1.21,1.21,0,0,0-.46-.25,18.09,18.09,0,0,0-6.3-.62,18.46,18.46,0,0,0-8,2.45l-.41.22A11,11,0,0,1,27,129.16ZM16.35,167c1.17.19,2.34.43,3.53.54a19,19,0,0,0,6-.36.78.78,0,0,0,.4-.27,14.2,14.2,0,0,0,3.13-9,17.7,17.7,0,0,0-1.77-7.66c-.2-.44-.43-.86-.65-1.29l-.1,0c-.06.1-.11.2-.16.3a15.08,15.08,0,0,1-3.67,5,16.58,16.58,0,0,1-11.36,4.25,17.48,17.48,0,0,1-5.9-1l-1.49-.53s0,.08,0,.09a19.36,19.36,0,0,0,3.75,5,1,1,0,0,0,.37.2,18.6,18.6,0,0,0,7.2.54,18.41,18.41,0,0,0,7.33-2.49,1.89,1.89,0,0,1,.18-.06,11,11,0,0,1-6.79,6.5A.77.77,0,0,0,16.35,167Zm21.24-1.35A1.69,1.69,0,1,0,39.28,164a1.67,1.67,0,0,0-1.69,1.68Zm.22,0a1.47,1.47,0,1,1,1.47,1.47,1.47,1.47,0,0,1-1.47-1.47Zm1-.79h.69a.31.31,0,0,1,.36.36.32.32,0,0,1-.36.37h-.69v-.73Zm0,.95h.67c.21,0,.3.13.32.36l0,.23a1,1,0,0,0,0,.25h.29v0a.58.58,0,0,1-.07-.25l0-.24a.54.54,0,0,1,.07-.94c0-.34-.21-.55-.63-.55h-1v2h.26v-.84Z"/><path class="cls-2" d="M88.67,86.4a12.2,12.2,0,1,0,12.2,12.2A12.2,12.2,0,0,0,88.67,86.4Zm0,20.33a8.11,8.11,0,0,1-2-16V92.5a2,2,0,0,0,4.07,0V90.76a8.11,8.11,0,0,1-2,16Z"/><path class="cls-2" d="M94.77,39.63a2,2,0,0,0,0-4.06H90.7V31.5a2,2,0,0,0-4.07,0v4.07H82.57a2,2,0,1,0,0,4.06h4.06v8.14H82.57a2,2,0,1,0,0,4.06h4.06V60H82.57a2,2,0,1,0,0,4.06h4.06V68.1a2,2,0,0,0,4.07,0V64h4.07a2,2,0,0,0,0-4.06H90.7V51.83h4.07a2,2,0,1,0,0-4.06H90.7V39.63Z"/><path class="cls-2" d="M123.23,53.87a6.1,6.1,0,0,0,6.1-6.1V27.43a6.1,6.1,0,0,0-6.1-6.1h-4.31l.12-2h.13a2,2,0,0,0,2-2v-6.1a4.07,4.07,0,0,0-4.07-4.07H94.77v-2A4.07,4.07,0,0,0,90.7,1H86.63a4.07,4.07,0,0,0-4.06,4.07v2H60.2a4.07,4.07,0,0,0-4.07,4.07v6.1H50a2,2,0,0,0-1.43,3.47L59,31.18,62.1,80.3H60.2a2,2,0,0,0-1.72,1L48.31,97.52A2.08,2.08,0,0,0,48,98.6v14.23a4.07,4.07,0,0,0,4.07,4.07h4.06V121a2,2,0,0,0,2,2h12.2a2,2,0,0,0,2-2V116.9h32.53V121a2,2,0,0,0,2,2h12.2a2,2,0,0,0,2-2V116.9h4.07a4.07,4.07,0,0,0,4.06-4.07V98.6a2.07,2.07,0,0,0-.3-1.08L118.86,81.26a2,2,0,0,0-1.73-1h-1.9l1.65-26.43Zm0-28.47a2,2,0,0,1,2,2V47.77a2,2,0,0,1-2,2h-6.1l1.53-24.4ZM86.63,5.07H90.7v2H86.63ZM60.2,11.17h56.93v4.06H60.2ZM54.94,21.33h3.48L58.65,25Zm13.39,97.6H60.2v-2h8.13Zm48.8,0H109v-2h8.13Zm8.14-19.75v13.65H52.07V99.18l9.26-14.81H116ZM66.18,80.3l-3.82-61H115l-3.81,61Z"/><path class="cls-3" d="M86.67,85.4a12.2,12.2,0,1,0,12.2,12.2A12.2,12.2,0,0,0,86.67,85.4Zm0,20.33a8.11,8.11,0,0,1-2-16V91.5a2,2,0,0,0,4.07,0V89.76a8.11,8.11,0,0,1-2,16Z"/><path class="cls-3" d="M92.77,38.63a2,2,0,0,0,0-4.06H88.7V30.5a2,2,0,0,0-4.07,0v4.07H80.57a2,2,0,1,0,0,4.06h4.06v8.14H80.57a2,2,0,1,0,0,4.06h4.06V59H80.57a2,2,0,1,0,0,4.06h4.06V67.1a2,2,0,0,0,4.07,0V63h4.07a2,2,0,0,0,0-4.06H88.7V50.83h4.07a2,2,0,1,0,0-4.06H88.7V38.63Z"/><path class="cls-3" d="M121.23,52.87a6.1,6.1,0,0,0,6.1-6.1V26.43a6.1,6.1,0,0,0-6.1-6.1h-4.31l.12-2h.13a2,2,0,0,0,2-2v-6.1a4.07,4.07,0,0,0-4.07-4.07H92.77v-2A4.07,4.07,0,0,0,88.7,0H84.63a4.07,4.07,0,0,0-4.06,4.07v2H58.2a4.07,4.07,0,0,0-4.07,4.07v6.1H48a2,2,0,0,0-1.43,3.47L57,30.18,60.1,79.3H58.2a2,2,0,0,0-1.72,1L46.31,96.52A2.08,2.08,0,0,0,46,97.6v14.23a4.07,4.07,0,0,0,4.07,4.07h4.06V120a2,2,0,0,0,2,2h12.2a2,2,0,0,0,2-2V115.9h32.53V120a2,2,0,0,0,2,2h12.2a2,2,0,0,0,2-2V115.9h4.07a4.07,4.07,0,0,0,4.06-4.07V97.6a2.07,2.07,0,0,0-.3-1.08L116.86,80.26a2,2,0,0,0-1.73-1h-1.9l1.65-26.43Zm0-28.47a2,2,0,0,1,2,2V46.77a2,2,0,0,1-2,2h-6.1l1.53-24.4ZM84.63,4.07H88.7v2H84.63ZM58.2,10.17h56.93v4.06H58.2ZM52.94,20.33h3.48L56.65,24Zm13.39,97.6H58.2v-2h8.13Zm48.8,0H107v-2h8.13Zm8.14-19.75v13.65H50.07V98.18l9.26-14.81H114ZM64.18,79.3l-3.82-61H113l-3.81,61Z"/><path class="cls-4" d="M133.33,161.42h-5.92V161c0-3,0-6.08,0-9.11a5.91,5.91,0,0,0-.09-1.19,2.07,2.07,0,0,0-2.65-1.74,2.88,2.88,0,0,0-2.31,2.42,7.18,7.18,0,0,0-.18,1.67c0,2.63,0,5.26,0,7.89v.42h-5.91V144.75l5.46-.82v3.19c.05,0,.2-.08.27-.15a8.59,8.59,0,0,1,3.28-2.54,6.24,6.24,0,0,1,5.77.34,5.3,5.3,0,0,1,1.77,2c0,.1.11.2.17.3.44-.46.84-.92,1.29-1.33a6.92,6.92,0,0,1,6.44-1.68,4.33,4.33,0,0,1,3.5,3.62,12,12,0,0,1,.27,2.4c0,3.63,0,7.27,0,10.9v.39h-5.9V161c0-3.18,0-6.36,0-9.54a3.75,3.75,0,0,0-.1-.82,2.07,2.07,0,0,0-2.62-1.66,2.8,2.8,0,0,0-2.25,2.18,6.55,6.55,0,0,0-.24,1.76c0,2.69,0,5.37,0,8.05ZM44.07,134.33l1,2.56Q50,149,54.88,161.11a.44.44,0,0,0,.5.33h4.39a.46.46,0,0,0,.51-.34l7-17.08a24.37,24.37,0,0,1,3.35-6.16,9.23,9.23,0,0,1,5.12-3.53c.71-.17,1.44-.24,2.16-.35.2,0,.35-.06.32-.32L78,133.6l-.19,0a18.52,18.52,0,0,0-4.93-.2,14.48,14.48,0,0,0-5.6,1.63A13.7,13.7,0,0,0,61,142.08c-1.06,2.54-2,5.12-3,7.69-.13.34-.27.68-.43,1.07-.06-.14-.1-.22-.13-.3q-3.12-8.11-6.22-16.24a.44.44,0,0,0-.48-.33H44C44,134.13,44,134.23,44.07,134.33Zm63.22,27.61c.08.25.18.3.43.23l3.7-.91,1.94-.48-.07-.23a8.53,8.53,0,0,1-.66-3.7c0-4.16,0-8.33,0-12.5V144h-.2c-1.4.21-2.8.41-4.2.64a2.15,2.15,0,0,1-1.25-.14,8.6,8.6,0,0,0-4.67-.65,8.35,8.35,0,0,0-5.81,3.44A9.4,9.4,0,0,0,94.73,152a10.35,10.35,0,0,0,1.61,7,7.39,7.39,0,0,0,9.49,2.46c.36-.18.68-.41,1-.63C107,161.2,107.18,161.57,107.29,161.94Zm-.6-5.54a.68.68,0,0,1-.14.42,3.22,3.22,0,0,1-4.62.16,4.18,4.18,0,0,1-1.3-2.45,6,6,0,0,1,1-5,3.69,3.69,0,0,1,4.87-1,.53.53,0,0,1,.19.4c0,1.25,0,2.5,0,3.75S106.7,155.17,106.69,156.4Zm59,.92c.9,1.28,1.8,2.55,2.69,3.84a.56.56,0,0,0,.54.28h6.25l.36,0-.22-.33c-2-2.79-4-5.59-6-8.37a.46.46,0,0,1,0-.66c1.85-2.39,3.68-4.79,5.52-7.19.11-.14.21-.27.32-.43l-.14,0h-5.45a.51.51,0,0,0-.34.2c-.86,1.08-1.7,2.18-2.55,3.27l-.38.47a1.3,1.3,0,0,1-.17-.21c-.83-1.16-1.66-2.32-2.48-3.49a.53.53,0,0,0-.49-.26H157l-.33,0c.11.14.17.25.25.36q2.81,4,5.62,7.91a.44.44,0,0,1,0,.65q-2.37,3-4.72,6.09l-1.53,2,.27,0h5.35a.57.57,0,0,0,.4-.21c.66-.82,1.3-1.66,1.94-2.49l1.31-1.69A2.51,2.51,0,0,1,165.72,157.32ZM83.65,139.15c0,.13,0,.23,0,.33,0,1.52,0,3,0,4.55,0,.28-.08.36-.36.36-.61,0-1.22,0-1.82,0-.28,0-.34.08-.34.34,0,1.27,0,2.55,0,3.82,0,.1,0,.19,0,.33h2c.5,0,.5,0,.51.49,0,2.88,0,5.76.08,8.64a4.52,4.52,0,0,0,.62,2.35,2.07,2.07,0,0,0,1.9,1.1c2,0,4,0,5.92,0l.37,0,0-.09-.28-.16a6.75,6.75,0,0,1-1.15-.72,4.68,4.68,0,0,1-1.45-3.62c0-2.52,0-5,0-7.58,0-.11,0-.23,0-.37h3.65c.25,0,.35-.05.35-.33,0-1.27,0-2.55,0-3.82,0-.29-.11-.35-.37-.34H89.68v-6.14Zm70.15,5.46-5.59.82c-.24,0-.29.15-.29.37q0,7.65,0,15.29c0,.27.08.35.36.35h5.32l.3,0V144.63Zm-76.37.06c-1.74.26-3.48.52-5.22.76-.24,0-.3.13-.3.36q0,7.65,0,15.3c0,.27.08.35.36.35h5.28l.34,0V144.6Zm76-6.37c-1.75.27-3.49.53-5.24.78-.24,0-.34.13-.34.38,0,1.17,0,2.35,0,3.52a2.12,2.12,0,0,0,0,.24h.21c1.82-.27,3.63-.55,5.45-.8.25,0,.34-.11.33-.37,0-1.16,0-2.32,0-3.49,0-.08,0-.17,0-.28Zm-75.74,0-5.58.82c-.24,0-.24.18-.24.35,0,1.17,0,2.33,0,3.49,0,.1,0,.19,0,.31l6-.88v-4.09Zm98.9,21.47a1.69,1.69,0,1,1,1.68,1.67,1.68,1.68,0,0,1-1.68-1.67Zm.22,0a1.47,1.47,0,1,0,1.46-1.47,1.46,1.46,0,0,0-1.46,1.47Zm1-.79v.72h.69c.26,0,.36-.14.36-.37s-.1-.35-.36-.35Zm0,.95v.84h-.26v-2h.95c.42,0,.63.21.63.55a.54.54,0,0,0-.07.94c0,.09,0,.16,0,.23a.47.47,0,0,0,.07.26v0h-.29a1.79,1.79,0,0,1-.05-.25,1.52,1.52,0,0,0,0-.23c0-.23-.11-.36-.32-.36Z"/><path class="cls-4" d="M7.28,148.5c-.35-.7-.7-1.32-1-2a18.72,18.72,0,0,1-1.68-8.78,16.55,16.55,0,0,1,.65-3.95.87.87,0,0,1,.2-.38,19.58,19.58,0,0,1,4.89-3.73l.18-.07c-.22.62-.44,1.19-.63,1.78a18.64,18.64,0,0,0-.81,7.08,16.38,16.38,0,0,0,3.64,9.31,15.25,15.25,0,0,0,5.5,4.24l.47.23a2.7,2.7,0,0,1-.33.21,17.88,17.88,0,0,1-9.27,2.27A14.13,14.13,0,0,1,.7,151.6a.94.94,0,0,1-.28-.53,19.84,19.84,0,0,1,.24-9.13c0-.06,0-.11,0-.16l.07-.1A11,11,0,0,0,7.28,148.5Zm31.34,3.79c.19-1.18.41-2.37.54-3.56a18.19,18.19,0,0,0-.36-5.93.87.87,0,0,0-.28-.42,14.3,14.3,0,0,0-10.37-3.08,18.29,18.29,0,0,0-7.24,2.22c-.11,0-.2.12-.35.2l.31.17c5.79,2.78,8.76,7.49,9.31,13.79A17.69,17.69,0,0,1,29,163.59c-.1.25-.19.5-.3.79l.19-.06a19.56,19.56,0,0,0,4.91-3.76.86.86,0,0,0,.18-.34,17.92,17.92,0,0,0,.59-6.64,18.41,18.41,0,0,0-2.51-7.82c0-.06,0-.13-.11-.25a11,11,0,0,1,6.5,6.79ZM24.86,128.08a19.55,19.55,0,0,0-9.43-.24.83.83,0,0,0-.42.27,14,14,0,0,0-3.09,8,17.76,17.76,0,0,0,2.24,9.67l.2.32.19-.38a14.74,14.74,0,0,1,1.86-3.1,16,16,0,0,1,11.27-6.09,17.9,17.9,0,0,1,8.94,1.29c.12.05.24.08.39.13a1.23,1.23,0,0,0,0-.13,19.75,19.75,0,0,0-3.68-4.89,1.21,1.21,0,0,0-.46-.25,18.09,18.09,0,0,0-6.3-.62,18.46,18.46,0,0,0-8,2.45l-.41.22A11,11,0,0,1,25,128.16ZM14.35,166c1.17.19,2.34.43,3.53.54a19,19,0,0,0,6-.36.78.78,0,0,0,.4-.27,14.2,14.2,0,0,0,3.13-9,17.7,17.7,0,0,0-1.77-7.66c-.2-.44-.43-.86-.65-1.29l-.1,0c-.06.1-.11.2-.16.3a15.08,15.08,0,0,1-3.67,5,16.58,16.58,0,0,1-11.36,4.25,17.48,17.48,0,0,1-5.9-1l-1.49-.53s0,.08,0,.09a19.36,19.36,0,0,0,3.75,5,1,1,0,0,0,.37.2,18.6,18.6,0,0,0,7.2.54,18.41,18.41,0,0,0,7.33-2.49,1.89,1.89,0,0,1,.18-.06,11,11,0,0,1-6.79,6.5A.77.77,0,0,0,14.35,166Zm21.24-1.35A1.69,1.69,0,1,0,37.28,163a1.67,1.67,0,0,0-1.69,1.68Zm.22,0a1.47,1.47,0,1,1,1.47,1.47,1.47,1.47,0,0,1-1.47-1.47Zm1-.79h.69a.31.31,0,0,1,.36.36.32.32,0,0,1-.36.37h-.69v-.73Zm0,.95h.67c.21,0,.3.13.32.36l0,.23a1,1,0,0,0,0,.25h.29v0a.58.58,0,0,1-.07-.25l0-.24a.54.54,0,0,1,.07-.94c0-.34-.21-.55-.63-.55h-1v2h.26v-.84Z"/></g></g></svg>