<svg xmlns="http://www.w3.org/2000/svg" viewBox="0 0 159.32 170.46"><defs><style>.cls-1,.cls-2{fill:#fff;}.cls-1{fill-rule:evenodd;}</style></defs><title>Asset 24ok</title><g id="Layer_2" data-name="Layer 2"><g id="Layer_1-2" data-name="Layer 1"><path class="cls-1" d="M8.32,162.4v-6.83a.24.24,0,0,1,.23-.24h6.22c3.06,0,4.81,1.33,4.81,3.63s-1.61,3.67-4.66,3.67H8.55a.23.23,0,0,1-.23-.23m0-13.82v-6.47a.23.23,0,0,1,.23-.23h6.37a3.34,3.34,0,0,1,3.54,3.52,3.48,3.48,0,0,1-3.69,3.42H8.55a.24.24,0,0,1-.23-.24M.23,135.11V169.4H17.77c5.11,0,10.61-3.62,10.61-9.47a8.22,8.22,0,0,0-6-8.1c-.14-.05-.28-.09-.28-.27a.22.22,0,0,1,.16-.22,7.23,7.23,0,0,0,4.63-6.92c0-5.83-3.95-9.31-10.57-9.31Z"/><path class="cls-1" d="M40.17,152.23c0-6.13,3-10.09,7.61-10.09s7.67,4,7.67,10.09-3,10.14-7.67,10.14-7.61-4-7.61-10.14m-8.14,0c0,10.77,6.33,18,15.75,18s15.76-7.23,15.76-18-6.33-18-15.76-18S32,141.47,32,152.23"/><path class="cls-1" d="M67.59,144.94c0,6.77,5.33,9.31,9.8,10.25l1.22.25c4.35.92,6.4,1.62,6.4,4.08,0,2.2-2,3.68-4.92,3.68a11.14,11.14,0,0,1-8.82-4.37L66.05,164c2.79,3.28,6.46,6.28,14.14,6.28,6.57,0,13.21-3.82,13.21-11.12,0-7.47-5.09-9.16-10.76-10.35l-1.22-.25c-2.78-.59-5.48-1.36-5.48-3.73s2.24-3.47,4.46-3.47a10.11,10.11,0,0,1,7.12,3.15l5.08-5a16.06,16.06,0,0,0-12.36-5.21c-7.56,0-12.65,4.3-12.65,10.71"/><path class="cls-1" d="M97.1,152c0,10.71,6.52,18.2,15.86,18.2,7,0,10.11-2.56,13.41-7.26l-6.67-4.51c-1.5,2.42-3.12,3.91-6.34,3.91-3.89,0-8.07-3.23-8.07-10.34,0-6.5,3.94-9.89,7.82-9.89a6.9,6.9,0,0,1,6.38,3.81l6.63-4.41c-3.4-5-7.43-7.26-13.06-7.26-11,0-16,8.92-16,17.75"/><path class="cls-1" d="M150.39,135.11v12.55a.23.23,0,0,1-.24.23H139.61a.23.23,0,0,1-.23-.23V135.11h-8.65V169.4h8.65V155.93a.23.23,0,0,1,.23-.24h10.54a.24.24,0,0,1,.24.24V169.4h8.69V135.11h-8.69"/><path class="cls-1" d="M28.62,159.93c0,5.86-5.4,9.71-10.85,9.71H0V134.87H16.29c6.27,0,10.8,3.13,10.8,9.55a7.54,7.54,0,0,1-4.79,7.14c0,.05,6.32,1.49,6.32,8.37M18.23,145.4a3.13,3.13,0,0,0-3.31-3.29H8.55v6.47h6.22a3.26,3.26,0,0,0,3.46-3.18M19.35,159c0-2-1.48-3.39-4.58-3.39H8.55v6.83h6.37c2.59,0,4.43-.93,4.43-3.44"/><path class="cls-1" d="M63.78,152.23c0,10.22-5.86,18.23-16,18.23s-16-8-16-18.23S37.7,134,47.78,134s16,8.06,16,18.23m-8.56,0c0-5.44-2.5-9.86-7.44-9.86s-7.38,4.42-7.38,9.86,2.44,9.91,7.38,9.91,7.44-4.42,7.44-9.91"/><path class="cls-1" d="M93.64,159.11c0,7.65-6.93,11.35-13.45,11.35-7.53,0-11.4-2.87-14.46-6.52l5.55-5.45A11,11,0,0,0,80.09,163c2.8,0,4.69-1.38,4.69-3.44,0-2.21-1.67-2.89-6.22-3.85l-1.22-.26c-5.48-1.15-10-4.26-10-10.47,0-6.83,5.55-10.94,12.88-10.94a16.28,16.28,0,0,1,12.69,5.44l-5.4,5.34a10,10,0,0,0-7.13-3.23c-2,0-4.23.92-4.23,3.23,0,2.11,2.33,2.87,5.29,3.5l1.23.25c5,1,11,2.57,11,10.58"/><path class="cls-1" d="M126.7,162.91c-3.56,5.14-6.87,7.55-13.74,7.55-9.78,0-16.09-8.11-16.09-18.43,0-9.81,5.7-18,16.19-18,5.75,0,9.88,2.26,13.39,7.55l-7,4.67c-1.43-2.46-3.27-3.9-6.32-3.9-3.87,0-7.59,3.46-7.59,9.66,0,6.94,4,10.11,7.84,10.11,3.32,0,4.84-1.64,6.27-4l7.07,4.77"/><polygon class="cls-1" points="159.32 169.64 150.15 169.64 150.15 155.93 139.61 155.93 139.61 169.64 130.5 169.64 130.5 134.87 139.61 134.87 139.61 147.66 150.15 147.66 150.15 134.87 159.32 134.87 159.32 169.64"/><path class="cls-2" d="M125.77,109.68V18L121.33,0H34.21L29.77,17.75v91.93l-2,6V124h100v-8.32Zm-92-9.68V40h88v60h-8v4h8v4h-88v-4h76v-4Zm22-80V36h-22V20Zm66,16h-62V20h62ZM118.21,4l3,12H34.33l3-12Zm5.56,116h-92v-3.68L33.21,112h89.12l1.44,4.32Z"/><path class="cls-2" d="M77.77,44a26,26,0,1,0,26,26A26,26,0,0,0,77.77,44Zm0,48A22,22,0,1,1,97.34,60H92.69a18,18,0,1,0,0,20h4.65A22,22,0,0,1,77.77,92Zm0-8a14,14,0,1,1,12-21.19V77.19A14,14,0,0,1,77.77,84Zm21.15-8H93.77V64h5.15a21.6,21.6,0,0,1,0,12Z"/><path class="cls-2" d="M67.77,30h4.37A6,6,0,0,0,83.4,30h4.37V26H83.4a6,6,0,0,0-11.26,0H67.77Zm10-4a2,2,0,1,1-2,2A2,2,0,0,1,77.77,26Z"/><path class="cls-2" d="M97.77,26h4v4h-4Z"/><path class="cls-2" d="M105.77,26h4v4h-4Z"/><path class="cls-2" d="M113.77,26h4v4h-4Z"/><path class="cls-2" d="M41.77,8h24v4h-24Z"/><path class="cls-2" d="M69.77,8h4v4h-4Z"/><path class="cls-2" d="M37.77,26h14v4h-14Z"/></g></g></svg>