<?xml version="1.0"?>
<svg xmlns="http://www.w3.org/2000/svg" height="512px" viewBox="-48 0 464 464" width="512px"><path d="m96 64h-88v64h88zm-16 40h-56v-16h56zm0 0" fill="#FFFFFF"/><path d="m345.753906 0h-323.507812l-12 48h347.507812zm-209.753906 32h-96v-16h96zm32 0h-16v-16h16zm0 0" fill="#FFFFFF"/><path d="m248 288h20.59375c2.167969-7.640625 3.40625-15.671875 3.40625-24s-1.238281-16.359375-3.40625-24h-20.59375zm0 0" fill="#FFFFFF"/><path d="m192 96c0 4.417969-3.582031 8-8 8s-8-3.582031-8-8 3.582031-8 8-8 8 3.582031 8 8zm0 0" fill="#FFFFFF"/><path d="m112 128h248v-64h-248zm216-40h16v16h-16zm-32 0h16v16h-16zm-32 0h16v16h-16zm-120 0h17.472656c3.3125-9.289062 12.113282-16 22.527344-16s19.214844 6.710938 22.527344 16h17.472656v16h-17.472656c-3.3125 9.289062-12.113282 16-22.527344 16s-19.214844-6.710938-22.527344-16h-17.472656zm0 0" fill="#FFFFFF"/><path d="m362.230469 432h-356.460938l-5.769531 17.296875v14.703125h368v-14.703125zm0 0" fill="#FFFFFF"/><path d="m360 400h-32v-16h32v-240h-352v240h304v16h-304v16h352zm-176-32c-57.34375 0-104-46.65625-104-104s46.65625-104 104-104 104 46.65625 104 104-46.65625 104-104 104zm0 0" fill="#FFFFFF"/><path d="m184 176c-48.519531 0-88 39.480469-88 88s39.480469 88 88 88c34.113281 0 63.6875-19.550781 78.289062-48h-18.609374c-13.296876 19.792969-35.664063 32-59.679688 32-39.703125 0-72-32.296875-72-72s32.296875-72 72-72c24.015625 0 46.382812 12.207031 59.679688 32h18.609374c-14.601562-28.449219-44.175781-48-78.289062-48zm0 0" fill="#FFFFFF"/><path d="m128 264c0 30.871094 25.128906 56 56 56 19.625 0 37.902344-10.441406 48-27.238281v-57.523438c-10.097656-16.796875-28.375-27.238281-48-27.238281-30.871094 0-56 25.128906-56 56zm0 0" fill="#FFFFFF"/></svg>
